<svg xmlns="http://www.w3.org/2000/svg" width="45.1" height="37.676" viewBox="0 0 45.1 37.676">
  <g id="accidente_vehiculo" data-name="accidente vehiculo" transform="translate(0 0.008)">
    <path id="Trazado_849" data-name="Trazado 849" d="M2.619,8.757H3.3a3.561,3.561,0,0,1,1.565.391A31.033,31.033,0,0,1,7.092,4.6,6.952,6.952,0,0,1,11.781,1.84a34.621,34.621,0,0,1,6.093-.4,34.673,34.673,0,0,1,6.1.4A6.942,6.942,0,0,1,28.657,4.6,19.808,19.808,0,0,1,30.12,7.385a.921.921,0,0,1-1.675.759,17.4,17.4,0,0,0-1.293-2.5,5.019,5.019,0,0,0-3.5-1.993,33.762,33.762,0,0,0-5.78-.373,33.679,33.679,0,0,0-5.776.373,5.005,5.005,0,0,0-3.493,2,34.77,34.77,0,0,0-2.471,5.228.917.917,0,0,1-1.2.506.966.966,0,0,1-.285-.179,2.051,2.051,0,0,0-1.381-.635H2.66a.831.831,0,0,0-.819.838v1.238a.92.92,0,0,0,.879.879H3.58a.92.92,0,0,1,.736,1.473c-.078.106-.156.216-.23.322a6.489,6.489,0,0,0-1.068,3.751v8.486a.857.857,0,0,0,.847.847h2.3a.845.845,0,0,0,.847-.847v-1.33a.92.92,0,1,1,1.841,0v1.33a2.7,2.7,0,0,1-2.688,2.688h-2.3a2.7,2.7,0,0,1-2.688-2.688V19.093A8.457,8.457,0,0,1,2,15.264a2.73,2.73,0,0,1-2-2.577V11.375A2.685,2.685,0,0,1,2.619,8.757Z" transform="translate(0 -0.777)" fill="#138468"/>
    <path id="Trazado_850" data-name="Trazado 850" d="M53.429,26.6h-.695a3.5,3.5,0,0,0-1.551.391,31.033,31.033,0,0,0-2.227-4.547,6.941,6.941,0,0,0-4.685-2.761,34.673,34.673,0,0,0-6.1-.4,34.62,34.62,0,0,0-6.093.4,6.948,6.948,0,0,0-4.689,2.761,31.033,31.033,0,0,0-2.227,4.547A3.561,3.561,0,0,0,23.6,26.6h-.681a2.679,2.679,0,0,0-2.628,2.614v1.312A2.731,2.731,0,0,0,22.283,33.1a8.4,8.4,0,0,0-.824,3.829v8.459a2.7,2.7,0,0,0,2.688,2.688h2.3a2.7,2.7,0,0,0,2.688-2.688v-.41H47.207v.41a2.7,2.7,0,0,0,2.688,2.688h2.3a2.7,2.7,0,0,0,2.688-2.688V36.951A8.426,8.426,0,0,0,54.06,33.1a2.731,2.731,0,0,0,1.993-2.577V29.215A2.682,2.682,0,0,0,53.429,26.6Zm.782,3.884a.925.925,0,0,1-.879.888h-.847a.92.92,0,0,0-.736,1.473c.078.106.156.212.23.322a6.488,6.488,0,0,1,1.068,3.769v8.459a.845.845,0,0,1-.847.847H49.9a.845.845,0,0,1-.847-.847v-1.33a.923.923,0,0,0-.92-.92H28.206a.923.923,0,0,0-.92.92v1.325a.845.845,0,0,1-.847.847h-2.3a.845.845,0,0,1-.847-.847v-8.5a6.489,6.489,0,0,1,1.068-3.751c.074-.11.152-.216.23-.322a.919.919,0,0,0-.741-1.473h-.842a.921.921,0,0,1-.884-.879v-1.22a.831.831,0,0,1,.833-.824h.612a2.051,2.051,0,0,1,1.381.635.881.881,0,0,0,.285.179.921.921,0,0,0,1.2-.506A35.021,35.021,0,0,1,28.9,23.481a5.005,5.005,0,0,1,3.493-2,33.762,33.762,0,0,1,5.78-.373,33.762,33.762,0,0,1,5.78.373,5.005,5.005,0,0,1,3.493,2,34.769,34.769,0,0,1,2.48,5.265.966.966,0,0,0,.179.285.918.918,0,0,0,1.3.041,2.056,2.056,0,0,1,1.344-.635H53.4a.831.831,0,0,1,.815.842Z" transform="translate(-10.952 -10.407)" fill="#ec111a"/>
    <path id="Trazado_851" data-name="Trazado 851" d="M76.456,52.077a2.182,2.182,0,0,0-.074-.571,2.3,2.3,0,0,0-2.8-1.652l-3.221.851a2.3,2.3,0,0,0,.58,4.519H74.16a2.3,2.3,0,0,0,2.3-2.3v-.851ZM74.62,52.9a.462.462,0,0,1-.46.46H70.939a.454.454,0,0,1-.41-.318.461.461,0,0,1,.295-.58l3.221-.851a.48.48,0,0,1,.115,0,.462.462,0,0,1,.46.46Z" transform="translate(-37.068 -26.876)" fill="#ffd42f"/>
    <path id="Trazado_852" data-name="Trazado 852" d="M38.832,50.71l-3.221-.851a2.445,2.445,0,0,0-.58-.078,2.3,2.3,0,0,0-2.31,2.292v.847a2.3,2.3,0,0,0,2.3,2.3h3.221a2.292,2.292,0,0,0,.589-4.51Zm-.589,2.669H35.021a.462.462,0,0,1-.46-.46v-.851a.462.462,0,0,1,.46-.46.52.52,0,0,1,.12,0l3.221.851a.469.469,0,0,1-.12.92Z" transform="translate(-17.662 -26.876)" fill="#ffd42f"/>
    <path id="Trazado_853" data-name="Trazado 853" d="M80.186,4.2A.92.92,0,0,0,78.9,4.41L76.665,7.539a.921.921,0,1,0,1.408,1.187.894.894,0,0,0,.1-.133l2.214-3.111A.919.919,0,0,0,80.186,4.2Z" transform="translate(-41.266 -2.178)" fill="#fb6330"/>
    <path id="Trazado_854" data-name="Trazado 854" d="M82.016,16.224a.908.908,0,0,0,.41-.1l3.442-1.717a.921.921,0,0,0-.824-1.648L81.6,14.48a.92.92,0,0,0,.41,1.744h0Z" transform="translate(-43.773 -6.841)" fill="#fb6330"/>
    <path id="Trazado_855" data-name="Trazado 855" d="M70.391.81,69.88,4.625a.922.922,0,0,0,.787,1.035H70.8a.92.92,0,0,0,.92-.8l.511-3.815A.928.928,0,1,0,70.386.8Z" transform="translate(-37.716 0)" fill="#fb6330"/>
  </g>
</svg>
