<svg id="accidente_carro" data-name="accidente carro" xmlns="http://www.w3.org/2000/svg" width="71.627" height="59.836" viewBox="0 0 71.627 59.836">
  <defs>
    <style>
      .cls-1 {
        fill: #138468;
      }

      .cls-2 {
        fill: #ec111a;
      }

      .cls-3 {
        fill: #ffd42f;
      }

      .cls-4 {
        fill: #fb6330;
      }
    </style>
  </defs>
  <path id="Trazado_849" data-name="Trazado 849" class="cls-1" d="M4.159,13.066H5.24a5.656,5.656,0,0,1,2.485.621,49.286,49.286,0,0,1,3.537-7.221,11.04,11.04,0,0,1,7.448-4.385,54.984,54.984,0,0,1,9.677-.636,55.067,55.067,0,0,1,9.684.636,11.025,11.025,0,0,1,7.44,4.385,31.459,31.459,0,0,1,2.324,4.422,1.462,1.462,0,0,1-2.66,1.206,27.632,27.632,0,0,0-2.054-3.976,7.971,7.971,0,0,0-5.555-3.165,53.62,53.62,0,0,0-9.18-.592,53.488,53.488,0,0,0-9.173.592,7.949,7.949,0,0,0-5.547,3.172,55.221,55.221,0,0,0-3.925,8.3,1.456,1.456,0,0,1-1.9.8,1.534,1.534,0,0,1-.453-.285A3.257,3.257,0,0,0,5.2,15.938H4.225a1.32,1.32,0,0,0-1.3,1.33v1.966a1.461,1.461,0,0,0,1.4,1.4H5.686a1.462,1.462,0,0,1,1.169,2.339c-.124.168-.249.344-.365.512a10.306,10.306,0,0,0-1.7,5.957V42.915A1.36,1.36,0,0,0,6.139,44.26H9.794a1.341,1.341,0,0,0,1.345-1.345V40.8a1.462,1.462,0,1,1,2.924,0v2.112a4.283,4.283,0,0,1-4.268,4.268H6.139a4.283,4.283,0,0,1-4.268-4.268V29.482A13.43,13.43,0,0,1,3.179,23.4,4.336,4.336,0,0,1,0,19.308V17.225A4.264,4.264,0,0,1,4.159,13.066Z" transform="translate(0 -0.379)"/>
  <path id="Trazado_850" data-name="Trazado 850" class="cls-2" d="M72.921,30.906h-1.1a5.564,5.564,0,0,0-2.463.621,49.285,49.285,0,0,0-3.537-7.221,11.024,11.024,0,0,0-7.44-4.385,55.066,55.066,0,0,0-9.684-.636,54.983,54.983,0,0,0-9.677.636,11.035,11.035,0,0,0-7.448,4.385,49.287,49.287,0,0,0-3.537,7.221,5.656,5.656,0,0,0-2.485-.621H24.463a4.255,4.255,0,0,0-4.173,4.151V37.14a4.338,4.338,0,0,0,3.165,4.093,13.335,13.335,0,0,0-1.308,6.081V60.748a4.283,4.283,0,0,0,4.268,4.268h3.654a4.283,4.283,0,0,0,4.268-4.268V60.1h28.7v.65a4.283,4.283,0,0,0,4.268,4.268h3.654a4.283,4.283,0,0,0,4.268-4.268v-13.4a13.382,13.382,0,0,0-1.308-6.11,4.338,4.338,0,0,0,3.165-4.093V35.065A4.26,4.26,0,0,0,72.921,30.906Zm1.243,6.169a1.469,1.469,0,0,1-1.4,1.411H71.423a1.462,1.462,0,0,0-1.169,2.339c.124.168.248.336.365.512a10.3,10.3,0,0,1,1.7,5.986V60.755A1.341,1.341,0,0,1,70.97,62.1H67.315a1.341,1.341,0,0,1-1.345-1.345V58.643a1.466,1.466,0,0,0-1.462-1.462H32.861A1.466,1.466,0,0,0,31.4,58.643v2.1a1.341,1.341,0,0,1-1.345,1.345H26.4a1.341,1.341,0,0,1-1.345-1.345V47.256a10.306,10.306,0,0,1,1.7-5.957c.117-.175.241-.344.365-.512a1.46,1.46,0,0,0-1.177-2.339H24.6a1.463,1.463,0,0,1-1.4-1.4V35.116a1.319,1.319,0,0,1,1.323-1.308h.972a3.257,3.257,0,0,1,2.193,1.009,1.4,1.4,0,0,0,.453.285,1.462,1.462,0,0,0,1.9-.8,55.62,55.62,0,0,1,3.925-8.339,7.949,7.949,0,0,1,5.547-3.172,53.621,53.621,0,0,1,9.18-.592,53.621,53.621,0,0,1,9.18.592,7.949,7.949,0,0,1,5.547,3.172,55.221,55.221,0,0,1,3.939,8.361,1.534,1.534,0,0,0,.285.453,1.458,1.458,0,0,0,2.068.066,3.266,3.266,0,0,1,2.134-1.009H72.87a1.32,1.32,0,0,1,1.294,1.338Z" transform="translate(-5.46 -5.18)"/>
  <path id="Trazado_851" data-name="Trazado 851" class="cls-3" d="M81.036,53.427a3.466,3.466,0,0,0-.117-.906A3.656,3.656,0,0,0,76.468,49.9l-5.116,1.352a3.655,3.655,0,0,0,.921,7.177h5.116a3.656,3.656,0,0,0,3.654-3.654V53.42ZM78.12,54.735a.733.733,0,0,1-.731.731H72.273a.722.722,0,0,1-.65-.5.732.732,0,0,1,.468-.921l5.116-1.352a.763.763,0,0,1,.183,0,.733.733,0,0,1,.731.731Z" transform="translate(-18.48 -13.39)"/>
  <path id="Trazado_852" data-name="Trazado 852" class="cls-3" d="M42.426,51.256,37.31,49.9a3.883,3.883,0,0,0-.921-.124,3.656,3.656,0,0,0-3.669,3.64v1.345a3.656,3.656,0,0,0,3.654,3.654h5.116a3.641,3.641,0,0,0,.936-7.163ZM41.491,55.5H36.374a.733.733,0,0,1-.731-.731V53.412a.733.733,0,0,1,.731-.731.825.825,0,0,1,.19,0l5.116,1.352a.745.745,0,0,1-.19,1.462Z" transform="translate(-8.805 -13.39)"/>
  <path id="Trazado_853" data-name="Trazado 853" class="cls-4" d="M82.384,4.3a1.461,1.461,0,0,0-2.039.336l-3.552,4.97a1.463,1.463,0,1,0,2.236,1.886,1.42,1.42,0,0,0,.153-.212L82.7,6.339A1.46,1.46,0,0,0,82.384,4.3Z" transform="translate(-20.573 -1.077)"/>
  <path id="Trazado_854" data-name="Trazado 854" class="cls-4" d="M82.559,18.318a1.443,1.443,0,0,0,.65-.153l5.467-2.726a1.463,1.463,0,0,0-1.308-2.617L81.9,15.548a1.462,1.462,0,0,0,.65,2.77h.007Z" transform="translate(-21.823 -3.402)"/>
  <path id="Trazado_855" data-name="Trazado 855" class="cls-4" d="M70.7,1.291,69.885,7.35a1.464,1.464,0,0,0,1.25,1.644h.2A1.462,1.462,0,0,0,72.8,7.723l.811-6.059a1.475,1.475,0,1,0-2.924-.387Z" transform="translate(-18.803 0.008)"/>
</svg>
