<svg xmlns="http://www.w3.org/2000/svg" xmlns:xlink="http://www.w3.org/1999/xlink" width="35.93" height="62.855" viewBox="0 0 35.93 62.855">
  <defs>
    <clipPath id="clip-path">
      <path id="Trazado_114" data-name="Trazado 114" d="M0,62.855H35.93V0H0Z"/>
    </clipPath>
  </defs>
  <g id="clonaron" transform="translate(-14)">
    <g id="Grupo_86" data-name="Grupo 86" transform="translate(14)">
      <g id="Grupo_85" data-name="Grupo 85">
        <g id="Grupo_84" data-name="Grupo 84" clip-path="url(#clip-path)">
          <g id="Grupo_67" data-name="Grupo 67" clip-path="url(#clip-path)">
            <path id="Trazado_80" data-name="Trazado 80" d="M18.985,48.78H3.831a.631.631,0,0,1-.6-.5L.293,29.2a5.046,5.046,0,0,1,1.415-4.335L4.8,21.7a.568.568,0,0,1,.836,0,.579.579,0,0,1,0,.836l-3.087,3.19a3.852,3.852,0,0,0-1.081,3.306l2.869,18.55H18.457l1.891-16.351a.6.6,0,1,1,1.2.142L19.6,48.253a.624.624,0,0,1-.617.527Z" transform="translate(0.067 6.163)" fill="#138468"/>
          </g>
          <g id="Grupo_68" data-name="Grupo 68" clip-path="url(#clip-path)">
            <path id="Trazado_82" data-name="Trazado 82" d="M24.085,25.12a.6.6,0,0,1-.6-.6.6.6,0,0,1,.6-.6,1.761,1.761,0,0,0,1.7-1.943v-.746a1.761,1.761,0,0,0-1.7-1.943.6.6,0,0,1-.6-.6.6.6,0,0,1,.6-.6,2.953,2.953,0,0,1,2.894,3.139v.746a2.961,2.961,0,0,1-2.894,3.165Z" transform="translate(6.725 5.176)" fill="#138468"/>
          </g>
          <g id="Grupo_69" data-name="Grupo 69" clip-path="url(#clip-path)">
            <path id="Trazado_84" data-name="Trazado 84" d="M24.085,19.814a.613.613,0,0,1-.6-.553.6.6,0,0,1,.553-.643l2.2-.193a1.947,1.947,0,0,0,1.312-.669A1.9,1.9,0,0,0,28,16.341l-.051-.746a2.064,2.064,0,0,0-.669-1.325,1.9,1.9,0,0,0-1.415-.45l-1.711.167a.6.6,0,0,1-.09-1.2l1.724-.167a3.1,3.1,0,0,1,2.3.746A3.166,3.166,0,0,1,29.192,15.5l.051.746a2.994,2.994,0,0,1-.746,2.277,3.139,3.139,0,0,1-2.135,1.106l-2.174.193a.766.766,0,0,0-.1-.013Z" transform="translate(6.725 3.612)" fill="#138468"/>
          </g>
          <g id="Grupo_70" data-name="Grupo 70" clip-path="url(#clip-path)">
            <path id="Trazado_86" data-name="Trazado 86" d="M24.685,14.291a.581.581,0,0,1-.579-.476.606.606,0,0,1,.45-.72,1.9,1.9,0,0,0,1.222-.836,1.963,1.963,0,0,0,.283-1.467l-.142-.72c-.334-1.659-.978-1.672-1.557-1.557a.619.619,0,0,1-.72-.45.606.606,0,0,1,.45-.72c1.081-.219,2.444.026,2.972,2.5l.142.72a3.166,3.166,0,0,1-.45,2.354,3.1,3.1,0,0,1-1.981,1.338c-.013.039-.039.039-.09.039Z" transform="translate(6.768 2.086)" fill="#138468"/>
          </g>
          <g id="Grupo_71" data-name="Grupo 71" clip-path="url(#clip-path)">
            <path id="Trazado_88" data-name="Trazado 88" d="M26.7,38.054H14.876a.6.6,0,0,1-.6-.6.6.6,0,0,1,.6-.6H26.7a2.29,2.29,0,0,0,2.277-2.277V3.513A2.29,2.29,0,0,0,26.7,1.236H7.363A2.29,2.29,0,0,0,5.086,3.513V34.581a2.29,2.29,0,0,0,2.277,2.277.6.6,0,0,1,.6.6.6.6,0,0,1-.6.6A3.475,3.475,0,0,1,3.89,34.594V3.513A3.475,3.475,0,0,1,7.363.04H26.7a3.475,3.475,0,0,1,3.473,3.473V34.581A3.492,3.492,0,0,1,26.7,38.054Z" transform="translate(1.114 0.011)" fill="#ec111a"/>
          </g>
          <g id="Grupo_72" data-name="Grupo 72" clip-path="url(#clip-path)">
            <path id="Trazado_90" data-name="Trazado 90" d="M9.933,8.435a2.952,2.952,0,1,1,2.959-2.959A2.946,2.946,0,0,1,9.933,8.435Zm0-4.708a1.75,1.75,0,1,0,1.75,1.75,1.768,1.768,0,0,0-1.75-1.75Z" transform="translate(2.005 0.725)" fill="#ec111a"/>
          </g>
          <g id="Grupo_73" data-name="Grupo 73" clip-path="url(#clip-path)">
            <path id="Trazado_92" data-name="Trazado 92" d="M9.933,12.4a2.952,2.952,0,1,1,2.946-2.959A2.946,2.946,0,0,1,9.933,12.4Zm0-4.708a1.75,1.75,0,1,0,1.75,1.75A1.768,1.768,0,0,0,9.933,7.7Z" transform="translate(2.005 1.862)" fill="#ec111a"/>
          </g>
          <g id="Grupo_74" data-name="Grupo 74" clip-path="url(#clip-path)">
            <path id="Trazado_94" data-name="Trazado 94" d="M15.274,49a2.251,2.251,0,0,1-1.531-.617A2.174,2.174,0,0,1,13.1,46.85a2.1,2.1,0,0,1,.643-1.531A2.17,2.17,0,1,1,16.8,48.394a2.238,2.238,0,0,1-1.531.6Zm0-3.139a.983.983,0,0,0-.695.283.962.962,0,0,0-.283.695.965.965,0,1,0,1.647-.669.906.906,0,0,0-.669-.309Z" transform="translate(3.752 12.801)" fill="#138468"/>
          </g>
          <g id="Grupo_75" data-name="Grupo 75" clip-path="url(#clip-path)">
            <path id="Trazado_96" data-name="Trazado 96" d="M15.335,28.945a.6.6,0,0,1-.6-.6V21.265a.6.6,0,0,1,.6-.6.6.6,0,0,1,.6.6V28.34a.6.6,0,0,1-.6.6Z" transform="translate(4.219 5.918)" fill="#ec111a"/>
          </g>
          <g id="Grupo_76" data-name="Grupo 76" clip-path="url(#clip-path)">
            <path id="Trazado_98" data-name="Trazado 98" d="M20.825,28.945a.6.6,0,0,1-.6-.6V21.265a.6.6,0,1,1,1.209,0V28.34a.621.621,0,0,1-.6.6Z" transform="translate(5.792 5.918)" fill="#ec111a"/>
          </g>
          <g id="Grupo_77" data-name="Grupo 77" clip-path="url(#clip-path)">
            <path id="Trazado_100" data-name="Trazado 100" d="M18.315,30.519a.6.6,0,0,1-.6-.6v-15a.6.6,0,0,1,.6-.6.6.6,0,0,1,.6.6V29.927a.61.61,0,0,1-.6.592Z" transform="translate(5.073 4.099)" fill="#ec111a"/>
          </g>
          <g id="Grupo_78" data-name="Grupo 78" clip-path="url(#clip-path)">
            <path id="Trazado_102" data-name="Trazado 102" d="M15.335,21.211a.6.6,0,0,1-.6-.6V14.355a.6.6,0,0,1,.6-.6.6.6,0,0,1,.6.6v6.252a.6.6,0,0,1-.6.6Z" transform="translate(4.219 3.938)" fill="#ec111a"/>
          </g>
          <g id="Grupo_79" data-name="Grupo 79" clip-path="url(#clip-path)">
            <path id="Trazado_104" data-name="Trazado 104" d="M15.335,14.5a.6.6,0,0,1-.6-.6V7.665a.6.6,0,0,1,.6-.6.6.6,0,0,1,.6.6v6.252a.6.6,0,0,1-.6.579Z" transform="translate(4.219 2.022)" fill="#ec111a"/>
          </g>
          <g id="Grupo_80" data-name="Grupo 80" clip-path="url(#clip-path)">
            <path id="Trazado_106" data-name="Trazado 106" d="M15.335,6.622a.6.6,0,0,1-.6-.6V2.9a.6.6,0,0,1,.6-.6.6.6,0,0,1,.6.6V6.031a.593.593,0,0,1-.6.592Z" transform="translate(4.219 0.659)" fill="#ec111a"/>
          </g>
          <g id="Grupo_81" data-name="Grupo 81" clip-path="url(#clip-path)">
            <path id="Trazado_108" data-name="Trazado 108" d="M24.339,50.849a.6.6,0,0,1-.6-.6V42.976H1.2v7.268a.6.6,0,0,1-.6.6.585.585,0,0,1-.592-.6v-7.86a.6.6,0,0,1,.6-.6H24.352a.6.6,0,0,1,.6.6v7.86a.642.642,0,0,1-.617.6Z" transform="translate(0 11.967)" fill="#138468"/>
          </g>
          <g id="Grupo_82" data-name="Grupo 82" clip-path="url(#clip-path)">
            <path id="Trazado_110" data-name="Trazado 110" d="M7.415,37.326a.6.6,0,0,1-.6-.6V18.943a3.475,3.475,0,0,1,3.473-3.473h.836a3.475,3.475,0,0,1,3.473,3.473v14.1a.6.6,0,0,1-.6.6.6.6,0,0,1-.6-.6v-14.1a2.29,2.29,0,0,0-2.277-2.277h-.823a2.29,2.29,0,0,0-2.277,2.277V36.735a.582.582,0,0,1-.592.592Z" transform="translate(1.951 4.431)" fill="#138468"/>
          </g>
          <g id="Grupo_83" data-name="Grupo 83" clip-path="url(#clip-path)">
            <path id="Trazado_112" data-name="Trazado 112" d="M16,43.763h-.051a.6.6,0,0,1-.553-.643c0-.09.643-9.931-3.28-13.43A.592.592,0,1,1,12.9,28.8c1.84,1.659,3.01,4.605,3.5,8.748a33.232,33.232,0,0,1,.167,5.66.544.544,0,0,1-.566.553Z" transform="translate(3.414 8.208)" fill="#138468"/>
          </g>
        </g>
      </g>
    </g>
  </g>
</svg>
