<svg xmlns="http://www.w3.org/2000/svg" width="29.182" height="24.988" viewBox="0 0 29.182 24.988"><g transform="translate(0 -280.07)"><path d="M12.9,280.07a4.174,4.174,0,1,1-4.175,4.174A4.177,4.177,0,0,1,12.9,280.07Zm0,1.024a3.131,3.131,0,1,0,3.131,3.131A3.126,3.126,0,0,0,12.9,281.094Z" transform="translate(8.46 0)" fill="#fb6330"/><path d="M11.272,284.83a.508.508,0,0,0-.512.512h0a.508.508,0,0,0,.512.512h0a6.734,6.734,0,0,1,6.439,6.715v1.615H14.58a.508.508,0,0,0-.512.512.521.521,0,0,0,.512.512h3.663a.508.508,0,0,0,.512-.512v-2.127a7.794,7.794,0,0,0-7.483-7.739Z" transform="translate(10.428 4.613)" fill="#fb6330"/><path d="M6.025,280.07a4.174,4.174,0,1,1-4.175,4.174A4.177,4.177,0,0,1,6.025,280.07Zm0,1.024a3.131,3.131,0,1,0,3.131,3.131A3.126,3.126,0,0,0,6.025,281.094Z" transform="translate(1.793 0)" fill="#009dd6"/><path d="M7.483,284.83A7.8,7.8,0,0,0,0,292.588v2.127a.508.508,0,0,0,.512.512H4.175a.508.508,0,0,0,.512-.512.521.521,0,0,0-.512-.512H1.044v-1.615a6.721,6.721,0,0,1,6.439-6.715.508.508,0,0,0,.512-.512h0a.526.526,0,0,0-.512-.532Z" transform="translate(0 4.613)" fill="#009dd6"/><path d="M6.831,285.36a3.131,3.131,0,1,0,3.131,3.131A3.139,3.139,0,0,0,6.831,285.36Zm0,1.044a2.087,2.087,0,1,1-2.087,2.087A2.076,2.076,0,0,1,6.831,286.4Z" transform="translate(3.586 5.127)" fill="#f2609e"/><path d="M8.362,289.06A6.244,6.244,0,0,0,2.12,295.3v.512a.526.526,0,0,0,.512.532h11.46a.526.526,0,0,0,.532-.512h0v-.512A6.252,6.252,0,0,0,8.362,289.06Zm0,1.044a5.2,5.2,0,0,1,5.218,5.218H3.164A5.185,5.185,0,0,1,8.362,290.1Z" transform="translate(2.055 8.712)" fill="#f2609e"/><path d="M11.071,285.36a3.131,3.131,0,1,0,3.131,3.131A3.139,3.139,0,0,0,11.071,285.36Zm0,1.044a2.087,2.087,0,1,1-2.087,2.087A2.076,2.076,0,0,1,11.071,286.4Z" transform="translate(7.695 5.127)" fill="#f2609e"/><path d="M11.007,289.06a6.08,6.08,0,0,0-2.737.63.516.516,0,0,0-.2.709.534.534,0,0,0,.709.2,5.212,5.212,0,0,1,7.424,4.726h-5.73a.508.508,0,0,0-.512.512.521.521,0,0,0,.512.512h6.242a.513.513,0,0,0,.512-.532V295.3a6.215,6.215,0,0,0-6.222-6.242Z" transform="translate(7.759 8.712)" fill="#f2609e"/></g></svg>