<svg xmlns="http://www.w3.org/2000/svg" width="32" height="32" viewBox="0 0 32 32">
    <g fill="none" fill-rule="evenodd">
        <path d="M-2-2h36v36H-2z"/>
        <g stroke="#757575" stroke-linecap="round" stroke-linejoin="round" stroke-width="1.5">
            <path d="M19 1c7.833 0 12 5.556 12 12M19 8.09c3.708 0 5.455 2.175 5.455 5.455M9.075 13.003c2.347 4.615 5.169 7.418 9.782 9.783l2.36-1.745a1.623 1.623 0 0 1 1.663-.391c1.827.604 4.468 1.22 6.49 1.22.896 0 1.63.733 1.63 1.63v5.87c0 .897-.734 1.63-1.63 1.63C14.06 31 1 17.94 1 2.63 1 1.733 1.734 1 2.63 1H8.5c.896 0 1.63.733 1.63 1.63 0 2.04.625 4.37 1.227 6.196.18.57.05 1.207-.407 1.663l-1.875 2.514z"/>
        </g>
    </g>
</svg>
