<svg xmlns="http://www.w3.org/2000/svg" width="28" height="24.744" viewBox="0 0 28 24.744">
  <defs>
    <style>
      .cls-1 {
        fill: #8230e9;
      }
    </style>
  </defs>
  <path id="date" class="cls-1" d="M7.163,0A1.955,1.955,0,0,0,5.209,1.953V3.907H.264A.334.334,0,0,0,0,4.233V24.419a.34.34,0,0,0,.326.326H27.674A.34.34,0,0,0,28,24.419V4.233a.34.34,0,0,0-.326-.326H22.791V1.953a1.953,1.953,0,1,0-3.907,0V3.907H9.116V1.953A1.955,1.955,0,0,0,7.163,0Zm0,.651a1.294,1.294,0,0,1,1.3,1.3v2.6a1.3,1.3,0,0,1-2.6,0v-2.6A1.294,1.294,0,0,1,7.163.651Zm13.674,0a1.294,1.294,0,0,1,1.3,1.3v2.6a1.3,1.3,0,1,1-2.6,0v-2.6A1.294,1.294,0,0,1,20.837.651ZM.651,4.558H5.209a1.953,1.953,0,0,0,3.907,0h9.767a1.953,1.953,0,0,0,3.907,0h4.558V8.791H.651Zm0,4.884h26.7V24.093H.651ZM9.38,11.721a.334.334,0,0,0-.264.326V15.3a.34.34,0,0,0,.326.326H12.7a.34.34,0,0,0,.326-.326V12.046a.34.34,0,0,0-.326-.326Zm6.186,0a.334.334,0,0,0-.264.326V15.3a.34.34,0,0,0,.326.326h3.256a.34.34,0,0,0,.326-.326V12.046a.34.34,0,0,0-.326-.326Zm6.186,0a.334.334,0,0,0-.264.326V15.3a.34.34,0,0,0,.326.326H25.07A.34.34,0,0,0,25.4,15.3V12.046a.34.34,0,0,0-.326-.326Zm-11.985.651h2.6v2.6h-2.6Zm6.186,0h2.6v2.6h-2.6Zm6.186,0h2.6v2.6h-2.6ZM3.194,17.907a.334.334,0,0,0-.264.326v3.256a.34.34,0,0,0,.326.326H6.511a.34.34,0,0,0,.326-.326V18.233a.34.34,0,0,0-.326-.326Zm6.186,0a.334.334,0,0,0-.264.326v3.256a.34.34,0,0,0,.326.326H12.7a.34.34,0,0,0,.326-.326V18.233a.34.34,0,0,0-.326-.326Zm6.186,0a.334.334,0,0,0-.264.326v3.256a.34.34,0,0,0,.326.326h3.256a.34.34,0,0,0,.326-.326V18.233a.34.34,0,0,0-.326-.326Zm6.186,0a.334.334,0,0,0-.264.326v3.256a.34.34,0,0,0,.326.326H25.07a.34.34,0,0,0,.326-.326V18.233a.34.34,0,0,0-.326-.326Zm-18.171.651h2.6v2.6h-2.6Zm6.186,0h2.6v2.6h-2.6Zm6.186,0h2.6v2.6h-2.6Zm6.186,0h2.6v2.6h-2.6Z" transform="translate(0)"/>
</svg>
