<svg xmlns="http://www.w3.org/2000/svg" width="41.754" height="31.178" viewBox="0 0 41.754 31.178">
  <g id="daños_en_mi_casa" data-name="daños en mi casa" transform="translate(0.689 0.5)">
    <g id="Grupo_3" data-name="Grupo 3" transform="translate(0 0)">
      <path id="Trazado_21" data-name="Trazado 21" d="M43.666,30.357a2.611,2.611,0,0,1-3.716,0l-2.178-2.185v8.49a1.754,1.754,0,0,1-1.752,1.757H27.77l.44-9.983-5.429-2.749-.233-9.278L19.2,27.459,24.4,29.735,23.2,38.419H12.475a1.754,1.754,0,0,1-1.751-1.757v-8.49L8.546,30.357A2.632,2.632,0,0,1,4.83,26.629l5.452-5.47V11.394a.607.607,0,0,1,.606-.608h5.054a.607.607,0,0,1,.606.608v3.478l5.841-5.86a2.622,2.622,0,0,1,3.716,0l17.56,17.617A2.642,2.642,0,0,1,43.666,30.357Z" transform="translate(-4.061 -8.24)" fill="none" stroke="#009dd6" stroke-linecap="round" stroke-linejoin="round" stroke-width="1"/>
    </g>
  </g>
</svg>
