<svg id="facebook" xmlns="http://www.w3.org/2000/svg" width="19.921" height="19.921" viewBox="0 0 19.921 19.921">
  <defs>
    <style>
      .cls-1 {
        fill: #757575;
      }
    </style>
  </defs>
  <path id="Shape" class="cls-1" d="M18.822,0H1.1A1.1,1.1,0,0,0,0,1.1V18.822a1.1,1.1,0,0,0,1.1,1.1h9.548v-7.7H8.054V9.2h2.593V6.983a3.624,3.624,0,0,1,3.867-3.974,22.051,22.051,0,0,1,2.315.117V5.815H15.25c-1.25,0-1.494.591-1.494,1.463V9.2h2.988l-.388,3.016H13.739v7.707h5.083a1.1,1.1,0,0,0,1.1-1.1V1.1A1.1,1.1,0,0,0,18.822,0Z" transform="translate(0 0)"/>
</svg>
