<svg id="instagram" xmlns="http://www.w3.org/2000/svg" width="19.921" height="19.921" viewBox="0 0 19.921 19.921">
  <defs>
    <style>
      .cls-1 {
        fill: #757575;
      }
    </style>
  </defs>
  <path id="Combined_Shape" data-name="Combined Shape" class="cls-1" d="M9.961,19.921c-2.7,0-3.053-.011-4.106-.06A7.386,7.386,0,0,1,3.436,19.4a4.887,4.887,0,0,1-1.764-1.149A4.877,4.877,0,0,1,.523,16.485,7.348,7.348,0,0,1,.06,14.067C.011,13.013,0,12.662,0,9.961S.011,6.908.06,5.854A7.348,7.348,0,0,1,.523,3.436,4.877,4.877,0,0,1,1.672,1.672,4.877,4.877,0,0,1,3.436.523,7.348,7.348,0,0,1,5.854.06C6.908.011,7.26,0,9.961,0s3.053.011,4.106.06a7.348,7.348,0,0,1,2.418.463,4.877,4.877,0,0,1,1.764,1.149A4.887,4.887,0,0,1,19.4,3.436a7.386,7.386,0,0,1,.463,2.418c.048,1.054.06,1.405.06,4.106s-.011,3.053-.06,4.106a7.386,7.386,0,0,1-.463,2.418A5.1,5.1,0,0,1,16.485,19.4a7.386,7.386,0,0,1-2.418.463C13.013,19.91,12.662,19.921,9.961,19.921Zm0-18.126c-2.67,0-2.983.01-4.025.058a5.516,5.516,0,0,0-1.85.343,3.085,3.085,0,0,0-1.145.745A3.085,3.085,0,0,0,2.2,4.086a5.516,5.516,0,0,0-.343,1.85C1.8,6.978,1.795,7.291,1.795,9.961s.01,2.983.058,4.025a5.516,5.516,0,0,0,.343,1.85,3.085,3.085,0,0,0,.745,1.145,3.085,3.085,0,0,0,1.145.745,5.516,5.516,0,0,0,1.85.343c1.042.048,1.355.058,4.025.058s2.983-.01,4.025-.058a5.516,5.516,0,0,0,1.85-.343,3.3,3.3,0,0,0,1.89-1.89,5.516,5.516,0,0,0,.343-1.85c.048-1.042.058-1.355.058-4.025s-.01-2.983-.058-4.025a5.516,5.516,0,0,0-.343-1.85,3.085,3.085,0,0,0-.745-1.145A3.085,3.085,0,0,0,15.835,2.2a5.516,5.516,0,0,0-1.85-.343C12.944,1.8,12.63,1.795,9.961,1.795Zm0,13.307A5.141,5.141,0,1,1,15.1,9.961,5.147,5.147,0,0,1,9.961,15.1Zm0-8.478A3.337,3.337,0,1,0,13.3,9.961,3.341,3.341,0,0,0,9.961,6.624Zm5.462-.519A1.285,1.285,0,1,1,16.708,4.82,1.287,1.287,0,0,1,15.423,6.105Z" transform="translate(0 0)"/>
</svg>
