<svg id="linkedIn" xmlns="http://www.w3.org/2000/svg" width="23.61" height="19.921" viewBox="0 0 23.61 19.921">
  <defs>
    <style>
      .cls-1 {
        fill: #3e3d40;
      }

      .cls-2 {
        fill: #757575;
      }

      .cls-3 {
        fill: #fff;
        stroke: rgba(0,0,0,0);
        stroke-miterlimit: 10;
      }
    </style>
  </defs>
  <path id="Exclusion_2" data-name="Exclusion 2" class="cls-1" d="M19.542,14.575a1.312,1.312,0,1,1,1.326-1.312A1.3,1.3,0,0,1,19.542,14.575Zm0-2.452a1.14,1.14,0,1,0,1.132,1.14A1.123,1.123,0,0,0,19.542,12.123Zm-11.47,2.11H5.093V4.726H7.952v1.3h.041A3.153,3.153,0,0,1,10.814,4.49a3.165,3.165,0,0,1,2.922,1.3,5.931,5.931,0,0,1,.657,3.225v5.213H11.411V9.609c0-1.064,0-2.521-1.55-2.521-1.576,0-1.789,1.235-1.789,2.442v4.7Zm-4.849,0H.237V4.726H3.223v9.506Zm16.063-.277h-.2V12.568h.533c.332,0,.493.128.493.392a.355.355,0,0,1-.36.374l-.027,0,.412.616h-.213l-.385-.6,0-.008h-.248v.6Zm0-1.231v.469h.234c.214,0,.39-.018.39-.246,0-.2-.175-.223-.328-.223ZM1.73,3.427A1.724,1.724,0,0,1,0,1.713a1.73,1.73,0,0,1,3.459,0A1.723,1.723,0,0,1,1.73,3.427Z" transform="translate(2.742 2.742)"/>
  <path id="Fill_4" data-name="Fill 4" class="cls-2" d="M18.62,0H1.483A1.461,1.461,0,0,0,0,1.437V18.483a1.462,1.462,0,0,0,1.483,1.438H18.62a1.464,1.464,0,0,0,1.487-1.438V1.437A1.464,1.464,0,0,0,18.62,0Z" transform="translate(0)"/>
  <g id="Grupo_4" data-name="Grupo 4" transform="translate(2.742 2.951)">
    <path id="Fill_4-2" data-name="Fill 4" class="cls-3" d="M9.3,9.743H6.317V5.119c0-1.1-.019-2.521-1.549-2.521-1.552,0-1.789,1.2-1.789,2.442v4.7H0V.236H2.859v1.3H2.9A3.138,3.138,0,0,1,5.721,0C8.742,0,9.3,1.968,9.3,4.529Z" transform="translate(5.093 4.49)"/>
    <path id="Fill_4-3" data-name="Fill 4" class="cls-3" d="M1.73,3.427A1.714,1.714,0,1,1,3.459,1.713,1.721,1.721,0,0,1,1.73,3.427Z"/>
    <path id="Fill_4-4" data-name="Fill 4" class="cls-3" d="M0,9.507H2.986V0H0Z" transform="translate(0.237 4.726)"/>
  </g>
</svg>
