<svg xmlns="http://www.w3.org/2000/svg" width="307.213" height="26.54" viewBox="0 0 307.213 26.54">
  <defs>
    <style>
      .cls-1 {
        fill: #fff;
      }
    </style>
  </defs>
  <g id="Logo_scotia_blanco" data-name="Logo scotia blanco" transform="translate(-178.842 -105.019)">
    <g id="Grupo_691" data-name="Grupo 691" transform="translate(420.602 111.935)">
      <path id="Trazado_883" data-name="Trazado 883" class="cls-1" d="M838.629,20.736a6.145,6.145,0,0,0-2.724-.476h-5.667L828.01,33.647h3.72l.756-4.412h2.228a6.443,6.443,0,0,0,3.915-1.256,5.045,5.045,0,0,0,1.752-3.288C840.685,22.616,840.013,21.384,838.629,20.736Zm-3.915,5.6a7.122,7.122,0,0,1-1.168.064h-.628l.564-3.372h1.232c1.124,0,1.988.3,1.816,1.708A1.892,1.892,0,0,1,834.714,26.336Z" transform="translate(-828.01 -20.26)"/>
    </g>
    <path id="Trazado_884" data-name="Trazado 884" class="cls-1" d="M802.421,20.26h-3.729L796.45,33.417v.231h8.2l.5-2.952h-4.467Z" transform="translate(-385.062 91.675)"/>
    <path id="Trazado_885" data-name="Trazado 885" class="cls-1" d="M716.778,20.753,716.6,20.7a7.461,7.461,0,0,0-2.958-.561,8.912,8.912,0,0,0-5.559,2.082,7.881,7.881,0,0,0-2.774,4.654,5.257,5.257,0,0,0,1.416,4.818,6.712,6.712,0,0,0,4.791,1.854,11.656,11.656,0,0,0,3.244-.561l.654-3.977a4.959,4.959,0,0,1-3.311,1.34c-2.187,0-3.431-1.457-3.075-3.475a4.2,4.2,0,0,1,4.2-3.536,3.258,3.258,0,0,1,2.838,1.4l.531-3.194Z" transform="translate(-320.471 91.759)"/>
    <g id="Grupo_692" data-name="Grupo 692" transform="translate(396.076 111.935)">
      <path id="Trazado_886" data-name="Trazado 886" class="cls-1" d="M752.572,20.26a8.555,8.555,0,0,0-1.06.044c-3.416.388-6.727,2.812-7.375,6.187v.216a6.57,6.57,0,0,0,0,2.6c.584,2.639,2.92,4.348,6.231,4.348a7.433,7.433,0,0,0,1.147-.108,8.252,8.252,0,0,0,7.4-6.835v-.28a7.76,7.76,0,0,0,0-1.428C758.563,22.12,755.772,20.26,752.572,20.26Zm2.724,6.511a4.576,4.576,0,0,1-3.784,3.632c-.216,0-.456.044-.628.044a3.032,3.032,0,0,1-3.136-3.676,4.448,4.448,0,0,1,3.764-3.375h.54A3.015,3.015,0,0,1,755.3,26.771Z" transform="translate(-744.008 -20.26)"/>
    </g>
    <path id="Trazado_887" data-name="Trazado 887" class="cls-1" d="M605.751,13.675c-3.764-.312-10.275,1.174-10.275,1.174a22.238,22.238,0,0,0-3.326,1.048,14.234,14.234,0,0,0-2.94,1.486,15.912,15.912,0,0,1,2.94-.61,14.47,14.47,0,0,1,2.566-.257c3.694-.184,13.171,1.364,13.171,6.432,0,5.44-10.167,7.845-15.738,8.4-.505.058-1,.058-1.381.128a77.834,77.834,0,0,1-9.46-.187,29.41,29.41,0,0,0,10.838,1.915c10.783-.064,19.557-5.13,19.557-11.37C611.708,18.616,609.384,15.775,605.751,13.675Z" transform="translate(-232.738 96.367)"/>
    <path id="Trazado_888" data-name="Trazado 888" class="cls-1" d="M991,20.26h-3.732L985.09,33.647h3.734l1.486-9.375Z" transform="translate(-518.624 91.675)"/>
    <path id="Trazado_889" data-name="Trazado 889" class="cls-1" d="M920.686,20.26h-9.816l-.5,2.949h3.048l-1.685,10.438h3.729l1.69-10.438h3.1Z" transform="translate(-465.72 91.675)"/>
    <g id="Grupo_693" data-name="Grupo 693" transform="translate(471.085 111.935)">
      <path id="Trazado_890" data-name="Trazado 890" class="cls-1" d="M1012.653,20.26h-4.044l-7.1,12.219-.6,1.168h3.98l1.364-2.292h5.1l.564,2.292h3.959Zm-4.975,8.435,1.556-3.007.692-1.3.864,4.3h-3.112Z" transform="translate(-1000.91 -20.26)"/>
    </g>
    <g id="Grupo_694" data-name="Grupo 694" transform="translate(453.908 111.935)">
      <path id="Trazado_891" data-name="Trazado 891" class="cls-1" d="M954.15,24.391c.5-2.9-1.428-4.131-4.283-4.131h-5.536L942.6,30.468l-.52,3.18h3.743l.864-5.127,1.988,3.764.692,1.364h4.672l-3.629-5.492A4.423,4.423,0,0,0,954.15,24.391ZM948.679,26.1a5.288,5.288,0,0,1-1.255.172h-.368l.564-3.352h1.06c.931.108,1.731.476,1.623,1.644A1.925,1.925,0,0,1,948.679,26.1Z" transform="translate(-942.08 -20.26)"/>
    </g>
    <g id="Grupo_695" data-name="Grupo 695" transform="translate(429.49 111.935)">
      <path id="Trazado_892" data-name="Trazado 892" class="cls-1" d="M870.261,20.26h-4.088l-5.991,10.275L858.45,33.65h3.98l1.364-2.292h5.1l.564,2.292h3.98Zm-5.04,8.435,1.556-3.007.692-1.3.864,4.3h-3.112Z" transform="translate(-858.45 -20.26)"/>
    </g>
    <path id="Trazado_893" data-name="Trazado 893" class="cls-1" d="M602.941,35.375c.248,0,.5.061.747.061a11.018,11.018,0,0,0,2.823-.374c1.88-1.355,2.891-2.844,2.891-4.143,0-2.345-2.826-4.2-6.464-4.45h-.689a10.448,10.448,0,0,0-2.82.377c-1.942,1.361-2.879,2.838-2.879,4.14C596.553,33.206,599.373,35.121,602.941,35.375Z" transform="translate(-243.529 87.278)"/>
    <path id="Trazado_894" data-name="Trazado 894" class="cls-1" d="M571.194,20.07a21.628,21.628,0,0,0,3.007-1.413,23.434,23.434,0,0,1-3.007.607c-.753.07-1.626.193-2.508.254-3.694.181-13.229-1.422-13.229-6.429,0-5.553,10.225-7.907,15.738-8.52.5,0,.937-.061,1.378-.061a85.367,85.367,0,0,1,9.53.242,29.732,29.732,0,0,0-10.908-1.98c-10.783,0-19.484,5.136-19.484,11.373,0,3.221,2.245,6.12,5.948,8.219,3.769.248,10.275-1.232,10.275-1.232C569.127,20.808,570.189,20.446,571.194,20.07Z" transform="translate(-211.781 104.058)"/>
    <g id="Grupo_701" data-name="Grupo 701" transform="translate(178.842 105.019)">
      <g id="Grupo_700" data-name="Grupo 700">
        <g id="Grupo_698" data-name="Grupo 698" transform="translate(29.141 4.95)">
          <path id="Trazado_895" data-name="Trazado 895" class="cls-1" d="M171.2,31.99a5.789,5.789,0,1,0,5.789,5.789A5.8,5.8,0,0,0,171.2,31.99Zm0,8.34a2.552,2.552,0,1,1,2.552-2.552A2.556,2.556,0,0,1,171.2,40.33Z" transform="translate(-142.765 -26.924)"/>
          <path id="Trazado_896" data-name="Trazado 896" class="cls-1" d="M211.412,25.376h-1.581V21.96h-3.46v3.416H204.79v3.131h1.581v7.9h3.46v-7.9h1.581Z" transform="translate(-169.816 -20.035)"/>
          <rect id="Rectángulo_1401" data-name="Rectángulo 1401" class="cls-1" width="3.46" height="11.024" transform="translate(43.18 5.341)"/>
          <path id="Trazado_897" data-name="Trazado 897" class="cls-1" d="M232.3,15.81a1.929,1.929,0,1,0,1.929,1.929A1.931,1.931,0,0,0,232.3,15.81Z" transform="translate(-187.387 -15.81)"/>
          <path id="Trazado_898" data-name="Trazado 898" class="cls-1" d="M382.883,35.237a2.062,2.062,0,0,1,2.06,2.06v5.992h3.46V36.824c0-2.937-1.694-4.834-4.367-4.834a3.686,3.686,0,0,0-3.215,2.022V32.266h-3.46V43.292h3.46v-6A2.066,2.066,0,0,1,382.883,35.237Z" transform="translate(-288.358 -26.924)"/>
          <path id="Trazado_899" data-name="Trazado 899" class="cls-1" d="M428.82,32.775l-4.252-5.51,3.954-5.516h-4.045L421.3,26.21V16.68h-3.46v16.1h3.46V28.23l3.488,4.546Z" transform="translate(-316.164 -16.408)"/>
          <path id="Trazado_900" data-name="Trazado 900" class="cls-1" d="M103.816,29.217a5.064,5.064,0,0,0,.354-2.032,4.1,4.1,0,0,0-.983-2.8,8.212,8.212,0,0,0-3.754-2,6.326,6.326,0,0,1-.983-.369,2.433,2.433,0,0,1-.733-.545,1.226,1.226,0,0,1-.316-.892,1.306,1.306,0,0,1,.72-1.14,3.361,3.361,0,0,1,2.736.022,6.406,6.406,0,0,1,1.115.529l1.471-2.924a8.417,8.417,0,0,0-2.107-.952,9.234,9.234,0,0,0-2.348-.3,6.29,6.29,0,0,0-2.195.363,4.987,4.987,0,0,0-1.681,1.093,5.224,5.224,0,0,0-1.118,1.672,5.42,5.42,0,0,0-.369,2.038,4.29,4.29,0,0,0,1.3,2.921,7.156,7.156,0,0,0,2.611,1.459c.454.175.964.329,1.29.457a4.771,4.771,0,0,1,.949.482,1.51,1.51,0,0,1,.5.56,1.255,1.255,0,0,1,.106.7,1.454,1.454,0,0,1-.492.952,2.327,2.327,0,0,1-1.59.438,4.819,4.819,0,0,1-1.929-.463,13.979,13.979,0,0,1-1.569-.83L93.08,30.679a7.855,7.855,0,0,0,4.906,1.788,8.319,8.319,0,0,0,2.608-.416,6.035,6.035,0,0,0,1.976-1.105A5.247,5.247,0,0,0,103.816,29.217Z" transform="translate(-93.08 -15.817)"/>
          <g id="Grupo_697" data-name="Grupo 697" transform="translate(113.166 12.514)">
            <path id="Trazado_901" data-name="Trazado 901" class="cls-1" d="M456.466,55.78a1.925,1.925,0,1,0,1.925,1.925A1.926,1.926,0,0,0,456.466,55.78Zm0,3.466a1.54,1.54,0,1,1,1.54-1.54A1.541,1.541,0,0,1,456.466,59.246Z" transform="translate(-454.54 -55.78)"/>
            <g id="Grupo_696" data-name="Grupo 696" transform="translate(1.234 0.873)">
              <path id="Trazado_902" data-name="Trazado 902" class="cls-1" d="M459.169,59.944h-.31v.729h-.379v-2.1h.808a.7.7,0,0,1,.7.7.69.69,0,0,1-.407.614l.441.792h-.454Zm-.31-.354h.441a.322.322,0,0,0,0-.642h-.441Z" transform="translate(-458.48 -58.57)"/>
            </g>
          </g>
          <path id="Trazado_903" data-name="Trazado 903" class="cls-1" d="M140.169,39.369a2.552,2.552,0,1,1,0-3.2l2.292-2.295a5.79,5.79,0,1,0,0,7.786Z" transform="translate(-119.959 -26.917)"/>
          <path id="Trazado_904" data-name="Trazado 904" class="cls-1" d="M258.772,43.292V32.266H255.4v1.158l-.313-.279a4.22,4.22,0,0,0-2.905-1.155,5.8,5.8,0,0,0,0,11.578,4.22,4.22,0,0,0,2.905-1.155l.313-.279v1.158Zm-6.052-2.909a2.6,2.6,0,1,1,2.6-2.6A2.607,2.607,0,0,1,252.72,40.384Z" transform="translate(-198.598 -26.924)"/>
          <path id="Trazado_905" data-name="Trazado 905" class="cls-1" d="M345.572,43.292V32.266H342.2v1.158l-.313-.279a4.22,4.22,0,0,0-2.905-1.155,5.8,5.8,0,0,0,0,11.578,4.22,4.22,0,0,0,2.905-1.155l.313-.279v1.158Zm-6.052-2.909a2.6,2.6,0,1,1,2.6-2.6A2.607,2.607,0,0,1,339.52,40.384Z" transform="translate(-258.223 -26.924)"/>
          <path id="Trazado_906" data-name="Trazado 906" class="cls-1" d="M294.372,32.775V31.617l.313.279a4.22,4.22,0,0,0,2.905,1.155,5.8,5.8,0,0,0,0-11.578,4.22,4.22,0,0,0-2.905,1.155l-.313.279V16.68H291V32.772h3.372Zm.075-5.513a2.6,2.6,0,1,1,2.6,2.6A2.607,2.607,0,0,1,294.447,27.262Z" transform="translate(-229.035 -16.408)"/>
        </g>
        <g id="Grupo_699" data-name="Grupo 699">
          <path id="Trazado_907" data-name="Trazado 907" class="cls-1" d="M25.346,4.947H17.835a8.325,8.325,0,0,0-8.272,7.4h0A8.327,8.327,0,0,1,16.849,0H29.81Z" transform="translate(-5.859)"/>
          <path id="Trazado_908" data-name="Trazado 908" class="cls-1" d="M4.465,52.738h7.511a8.325,8.325,0,0,0,8.272-7.4h0a8.327,8.327,0,0,1-7.288,12.345H0Z" transform="translate(0 -31.145)"/>
          <circle id="Elipse_230" data-name="Elipse 230" class="cls-1" cx="6.684" cy="6.684" r="6.684" transform="translate(5.291 6.584)"/>
        </g>
      </g>
    </g>
  </g>
</svg>
