<svg id="me_accidente" data-name="me accidente" xmlns="http://www.w3.org/2000/svg" xmlns:xlink="http://www.w3.org/1999/xlink" width="49.05" height="49.671" viewBox="0 0 49.05 49.671">
  <defs>
    <clipPath id="clip-path">
      <path id="Trazado_848" data-name="Trazado 848" d="M0,49.671H49.05V0H0Z"/>
    </clipPath>
  </defs>
  <g id="Grupo_635" data-name="Grupo 635">
    <g id="Grupo_634" data-name="Grupo 634" clip-path="url(#clip-path)">
      <g id="Grupo_624" data-name="Grupo 624" clip-path="url(#clip-path)">
        <path id="Trazado_828" data-name="Trazado 828" d="M23.3,34.776h0a3.742,3.742,0,0,1-2.194-.745.65.65,0,0,1-.193-.828c.373-.731,2.318-.814,3.035-.662.814.179.869.166,1.394-.386a.41.41,0,0,1,.579.579,1.8,1.8,0,0,1-2.166.621,4.179,4.179,0,0,0-1.973.166,3.044,3.044,0,0,0,1.532.428.407.407,0,0,1,.414.414.468.468,0,0,1-.428.414Z" transform="translate(7.913 12.164)" fill="#fb6330"/>
      </g>
      <g id="Grupo_625" data-name="Grupo 625" clip-path="url(#clip-path)">
        <path id="Trazado_830" data-name="Trazado 830" d="M28.244,34.81a.432.432,0,0,1-.331-.166.406.406,0,0,1,.1-.579c.028-.014.069-.055.11-.083.11-.083.5-.345.511-.483a.631.631,0,0,0-.055-.083l-.511-.566a.425.425,0,0,1-.1-.193.4.4,0,0,0-.538-.3.417.417,0,1,1-.179-.814,1.224,1.224,0,0,1,.98.152,1.34,1.34,0,0,1,.5.662l.442.483a.858.858,0,0,1,.262.731c-.055.511-.538.842-.855,1.076a.419.419,0,0,1-.1.069.323.323,0,0,1-.235.1Z" transform="translate(10.224 11.964)" fill="#fb6330"/>
      </g>
      <g id="Grupo_626" data-name="Grupo 626" clip-path="url(#clip-path)">
        <path id="Trazado_832" data-name="Trazado 832" d="M12.582,12.373A5.092,5.092,0,1,1,17.6,7.281a5.056,5.056,0,0,1-5.022,5.091Zm0-9.369a4.25,4.25,0,1,0,4.208,4.25A4.243,4.243,0,0,0,12.582,3Z" transform="translate(2.871 0.832)" fill="#009dd6"/>
      </g>
      <g id="Grupo_627" data-name="Grupo 627" clip-path="url(#clip-path)">
        <path id="Trazado_834" data-name="Trazado 834" d="M34.224,43.6a2.389,2.389,0,0,1-2.263-1.656l-2.3-7.161a1.256,1.256,0,0,0-.717-.8c-.98-.4-3.6-1.476-9.134-4.374-5.519-2.87-6.457-8.085-6.9-10.583-.069-.331-.138-.717-.179-.924a15.949,15.949,0,0,0-2.953,3.1L7.967,27.909a2.387,2.387,0,0,1-2.925,1.7l-.179-.055A2.41,2.41,0,0,1,3.193,26.6c2.042-6.719,2.332-7.685,2.387-7.809h0c.7-2.29,6.471-8.03,6.719-8.279a.41.41,0,0,1,.579.579c-1.628,1.614-5.961,6.181-6.5,7.892-.014.028-2.359,7.8-2.359,7.8a1.573,1.573,0,0,0,1.1,1.932l.179.055a1.545,1.545,0,0,0,1.918-1.118l1.794-6.761a.535.535,0,0,1,.083-.152c2.842-3.477,3.449-3.518,3.712-3.546a.623.623,0,0,1,.442.138c.248.221.331.662.5,1.545.428,2.373,1.311,7.3,6.471,10a97.251,97.251,0,0,0,9.065,4.332,2.1,2.1,0,0,1,1.2,1.311l2.3,7.161a1.551,1.551,0,0,0,1.973,1.007l.179-.069a1.534,1.534,0,0,0,.9-.786,1.577,1.577,0,0,0,.1-1.2c0-.014,0-.028-.014-.028-.014-.069-1.614-7.326-3.56-10.293a11.606,11.606,0,0,0-3.173-1.973c-.138-.069-.248-.138-.359-.179a.956.956,0,0,1-.511-.966.943.943,0,0,1,.717-.8l5.2-1.118a2.288,2.288,0,0,1,1.835.386l5.367,3.863a1.541,1.541,0,0,0,2.166-.386l.11-.166a1.581,1.581,0,0,0-.373-2.194c-.014,0-.014-.014-.028-.028-.069-.069-6.747-5.919-9.824-5.919h-.028a19.029,19.029,0,0,0-4.926.98c-.414.11-.786.235-1.145.331A2.891,2.891,0,0,1,23.9,20.21c-1.449-4.47-1.118-5.05-.98-5.3a.656.656,0,0,1,.4-.317,5.8,5.8,0,0,1,2.608.579,7.818,7.818,0,0,0,2.594.662c2.166-.262,8.361-4.4,8.417-4.457l.014-.014A1.6,1.6,0,0,0,37.535,9.2l-.1-.166a1.457,1.457,0,0,0-.952-.731,1.551,1.551,0,0,0-1.187.152L30.43,11.311a4.421,4.421,0,0,1-3.656.373c-.483-.166-.952-.331-1.394-.5-1.89-.717-6.471-2.249-6.512-2.263a.432.432,0,0,1-.262-.538.406.406,0,0,1,.524-.262c.055.014,4.65,1.545,6.554,2.277q.642.248,1.366.5a3.631,3.631,0,0,0,2.994-.3l4.871-2.856a2.384,2.384,0,0,1,3.256.883l.1.166a2.447,2.447,0,0,1-.855,3.3c-.373.248-6.43,4.291-8.761,4.567a7.8,7.8,0,0,1-2.966-.7,8.789,8.789,0,0,0-2.014-.579h-.014c-.028.262,0,1.242,1.062,4.567a2.078,2.078,0,0,0,2.5,1.38c.345-.1.717-.193,1.131-.317a20.776,20.776,0,0,1,5.133-1.007c3.311-.028,9.934,5.7,10.376,6.1a2.422,2.422,0,0,1,.538,3.339l-.11.166a2.423,2.423,0,0,1-1.545.98,2.332,2.332,0,0,1-1.78-.4l-5.3-3.863a1.532,1.532,0,0,0-1.2-.248l-5.2,1.118a.1.1,0,0,0-.083.1.1.1,0,0,0,.069.11c.1.055.235.11.345.179,1.5.759,3.022,1.559,3.477,2.263,2,3.022,3.56,10.045,3.684,10.555a2.422,2.422,0,0,1-1.532,3.008l-.179.069a2.714,2.714,0,0,1-.814.138Z" transform="translate(1.181 2.818)" fill="#009dd6"/>
      </g>
      <g id="Grupo_628" data-name="Grupo 628" clip-path="url(#clip-path)">
        <path id="Trazado_836" data-name="Trazado 836" d="M26.864,8.847a.373.373,0,0,1-.373-.248L23.87,2.762a.421.421,0,0,1,.193-.552A.41.41,0,0,1,24.6,2.4L27.223,8.24a.421.421,0,0,1-.193.552c-.041.055-.1.055-.166.055Z" transform="translate(9.05 0.825)" fill="#fb6330"/>
      </g>
      <g id="Grupo_629" data-name="Grupo 629" clip-path="url(#clip-path)">
        <path id="Trazado_838" data-name="Trazado 838" d="M27.7,8.814a.419.419,0,0,1-.414-.386L26.84,2.316a.428.428,0,0,1,.373-.455.408.408,0,0,1,.442.386L28.1,8.359a.428.428,0,0,1-.373.455Z" transform="translate(10.192 0.706)" fill="#fb6330"/>
      </g>
      <g id="Grupo_630" data-name="Grupo 630" clip-path="url(#clip-path)">
        <path id="Trazado_840" data-name="Trazado 840" d="M28.52,8.829a.254.254,0,0,1-.179-.055.433.433,0,0,1-.179-.566l2.166-4.388a.42.42,0,0,1,.552-.179.433.433,0,0,1,.179.566L28.892,8.594a.393.393,0,0,1-.373.235Z" transform="translate(10.679 1.367)" fill="#fb6330"/>
      </g>
      <g id="Grupo_631" data-name="Grupo 631" clip-path="url(#clip-path)">
        <path id="Trazado_842" data-name="Trazado 842" d="M7.655,25.836a.433.433,0,0,1-.4-.276.445.445,0,0,1,.262-.538l6.844-2.277a.435.435,0,0,1,.524.262.445.445,0,0,1-.262.538L7.78,25.822c-.041-.014-.083.014-.124.014Z" transform="translate(2.748 8.63)" fill="#fb6330"/>
      </g>
      <g id="Grupo_632" data-name="Grupo 632" clip-path="url(#clip-path)">
        <path id="Trazado_844" data-name="Trazado 844" d="M8.874,28.632a.424.424,0,0,1-.207-.786l5.864-3.38a.4.4,0,0,1,.552.152.41.41,0,0,1-.152.566l-5.864,3.38a.3.3,0,0,1-.193.069Z" transform="translate(3.213 9.27)" fill="#fb6330"/>
      </g>
      <g id="Grupo_633" data-name="Grupo 633" clip-path="url(#clip-path)">
        <path id="Trazado_846" data-name="Trazado 846" d="M12.6,30.916a.359.359,0,0,1-.207-.055.422.422,0,0,1-.152-.566l2.925-5.009a.406.406,0,0,1,.552-.152.422.422,0,0,1,.152.566l-2.911,4.981a.387.387,0,0,1-.359.235Z" transform="translate(4.63 9.525)" fill="#fb6330"/>
      </g>
    </g>
  </g>
</svg>
