<svg xmlns="http://www.w3.org/2000/svg" width="60" height="40.227" viewBox="0 0 60 40.227">
  <g id="me_amenazaron" data-name="me amenazaron" transform="translate(-92 -503.386)">
    <path id="Trazado_105" data-name="Trazado 105" d="M55.95,37.336H53.3V39.23a1,1,0,0,1-2,0V37.336H10.2V39.23a1,1,0,0,1-2,0V37.336H1a1,1,0,0,1-1-1V29.56a1,1,0,0,1,1-1H4.55V22.781a1,1,0,0,1,1-1h19.3l2.1-5.932A4,4,0,0,1,30.8,13.16H39L42.3.748A.963.963,0,0,1,43.25,0H52.3a6.068,6.068,0,0,1,4.85,2.393,6.125,6.125,0,0,1,1.1,5.384L54.7,20.986a1.46,1.46,0,0,0,.85,1.745l3.85,1.645a.985.985,0,0,1,.6.9v7.976A4.07,4.07,0,0,1,55.95,37.336ZM2,35.342H4.55V30.557H2ZM30.75,15.1a2.088,2.088,0,0,0-1.95,1.4l-1.85,5.284h6.8v-3.14a1,1,0,0,1,2,0v3.14h.95l1.75-6.68ZM58,25.871l-3.25-1.4a3.455,3.455,0,0,1-2-4.088L56.3,7.178a4.168,4.168,0,0,0-4-5.234H44.05l-2,7.427H44.2a1,1,0,1,1,0,1.994H41.55l-.5,1.745h2.1a1,1,0,1,1,0,1.994H40.5L40,16.9h2.1a1,1,0,1,1,0,1.994H39.5L38.4,22.98a.963.963,0,0,1-.95.748H6.55v4.835h19a1,1,0,1,1,0,1.994h-19v4.785h49.4A2.067,2.067,0,0,0,58,33.249Z" transform="matrix(-1, 0, 0, -1, 152, 543.614)" fill="#138468"/>
    <path id="Trazado_106" data-name="Trazado 106" d="M1,5.384a1,1,0,0,1-1-1V1A1,1,0,0,1,2,1v3.39A1,1,0,0,1,1,5.384Z" transform="matrix(-1, 0, 0, -1, 109.3, 515.051)" fill="#fb6330"/>
    <path id="Trazado_107" data-name="Trazado 107" d="M1,5.384a1,1,0,0,1-1-1V1A1,1,0,0,1,2,1v3.39A1,1,0,0,1,1,5.384Z" transform="matrix(-1, 0, 0, -1, 105, 515.051)" fill="#fb6330"/>
    <path id="Trazado_108" data-name="Trazado 108" d="M1,5.384a1,1,0,0,1-1-1V1A1,1,0,0,1,2,1v3.39A1,1,0,0,1,1,5.384Z" transform="matrix(-1, 0, 0, -1, 100.75, 515.051)" fill="#fb6330"/>
  </g>
</svg>
