<svg xmlns="http://www.w3.org/2000/svg" width="52.678" height="48.688" viewBox="0 0 52.678 48.688">
  <g id="me_robaron_cajero_1" data-name="me robaron cajero 1" transform="translate(-2643 -1770)">
    <path id="Trazado_175" data-name="Trazado 175" d="M15.091,11.435a5.579,5.579,0,1,0,5.572,5.579A5.59,5.59,0,0,0,15.091,11.435Zm0,2.029a3.55,3.55,0,1,1-3.546,3.55A3.534,3.534,0,0,1,15.091,13.463Z" transform="translate(2635 1759.578)" fill="#7949b8"/>
    <path id="Trazado_176" data-name="Trazado 176" d="M21.754,10.168a1.014,1.014,0,0,0-.914.781l-.5,2a1.013,1.013,0,1,0,1.935.6.866.866,0,0,0,.026-.11l.5-2a1.015,1.015,0,0,0-.719-1.241,1,1,0,0,0-.328-.03Z" transform="translate(2632.825 1759.834)" fill="#7949b8"/>
    <path id="Trazado_177" data-name="Trazado 177" d="M19.444,13.341a1.022,1.022,0,0,0-.411.091l-9.61,4.3a1.015,1.015,0,0,0,.829,1.854l9.409-4.219h1.86a1.014,1.014,0,0,0,.028-2.029H19.444Z" transform="translate(2635.139 1759.193)" fill="#7949b8"/>
    <g id="Grupo_647" data-name="Grupo 647" transform="translate(2644.013 1788.764)">
      <path id="Trazado_178" data-name="Trazado 178" d="M11.044,43.209,9.213,46.8a3.009,3.009,0,0,0,.569,3.509h0l.053.049a5.162,5.162,0,0,0,7.209,0l.053-.049h0a3.009,3.009,0,0,0,.569-3.509l-1.832-3.591-1.8.919,1.828,3.595a.959.959,0,0,1-.182,1.136l-.055.051a3.112,3.112,0,0,1-4.376,0h0l-.051-.051a.96.96,0,0,1-.186-1.136l1.832-3.595Z" transform="translate(-8.885 -35.6)" fill="#ffd42f" stroke="rgba(0,0,0,0)" stroke-miterlimit="10" stroke-width="1"/>
      <path id="Trazado_179" data-name="Trazado 179" d="M15.79,33.678a1.017,1.017,0,0,0-.748.416l-1.5,2a1.013,1.013,0,1,0,1.621,1.217l1.5-2a1.014,1.014,0,0,0-.873-1.633Z" transform="translate(-9.783 -33.675)" fill="#ffd42f" stroke="rgba(0,0,0,0)" stroke-miterlimit="10" stroke-width="1"/>
      <path id="Trazado_180" data-name="Trazado 180" d="M11.742,34.313A1.014,1.014,0,0,0,11,35.946l1.5,2a1.013,1.013,0,1,0,1.621-1.217l-1.5-2A1.008,1.008,0,0,0,11.742,34.313Z" transform="translate(-9.269 -33.804)" fill="#ffd42f" stroke="rgba(0,0,0,0)" stroke-miterlimit="10" stroke-width="1"/>
    </g>
    <path id="Trazado_174" data-name="Trazado 174" d="M31.152,17.844a3,3,0,0,0-1.8.219l-9.174,4.108a3.048,3.048,0,0,0-1.8,2.771v8.12l-7.626-.075a3.07,3.07,0,0,0-2.332.927,3.183,3.183,0,0,0-.043,4.177,3.067,3.067,0,0,0,2.316.976l10.708.112a3.062,3.062,0,0,0,3.086-3.039V32.267l9.47,9.382-5.9,5.3a3.057,3.057,0,0,0,.4,4.818l12.746,8.1a3.071,3.071,0,0,0,2.466.432,3.188,3.188,0,0,0,2.255-3.507A3.046,3.046,0,0,0,44.5,54.744h0L35.121,48.79,38.3,45.948l1.69,1.674h0a3,3,0,0,0,.794.566l15.037,7.449h0a3.073,3.073,0,0,0,2.492.166,3.116,3.116,0,0,0,1.631-1.513,3.081,3.081,0,0,0,.237-2.211A3.049,3.049,0,0,0,58.553,50.2l-14.61-7.238L26.725,25.91l3.418-1.53,6.7,5.408h.012a3.065,3.065,0,0,0,2.375.645,3.187,3.187,0,0,0,2.6-3.185,3.049,3.049,0,0,0-1.133-2.189h-.012L32.53,18.475a3.161,3.161,0,0,0-1.378-.629Zm-.973,2.069a1.047,1.047,0,0,1,1.08.142l8.159,6.585h0a.9.9,0,0,1,.389.694,1.1,1.1,0,0,1-.257.706,1.143,1.143,0,0,1-.656.4.894.894,0,0,1-.784-.241h0l-7.178-5.79a1.015,1.015,0,0,0-1.05-.138l-5.335,2.394a1.014,1.014,0,0,0-.3,1.643L42.632,44.514a1.027,1.027,0,0,0,.265.191l14.756,7.309h.012a.9.9,0,0,1,.569.6,1.094,1.094,0,0,1-.1.757,1.132,1.132,0,0,1-.559.54.926.926,0,0,1-.839-.087h-.008L41.68,46.368h-.008a.95.95,0,0,1-.261-.183h0L39.044,43.84a1.015,1.015,0,0,0-1.39-.037l-4.879,4.374a1.015,1.015,0,0,0,.13,1.613l10.507,6.676h.012a.885.885,0,0,1,.5.655,1.107,1.107,0,0,1-.178.744,1.122,1.122,0,0,1-.614.475.913.913,0,0,1-.823-.174H42.3l-12.758-8.1a.976.976,0,0,1-.134-1.6l6.706-6.015a1.017,1.017,0,0,0,.036-1.479L24.185,29.125a1.013,1.013,0,0,0-1.726.72v6.3a1,1,0,0,1-1.041,1.01l-10.722-.112h-.016a.929.929,0,0,1-.788-.292,1.11,1.11,0,0,1-.249-.728A1.093,1.093,0,0,1,9.9,35.3a.913.913,0,0,1,.794-.28h.016l8.663.085A1.018,1.018,0,0,0,20.4,34.095V24.952h0a1,1,0,0,1,.6-.917h0c3.057-1.369,6.135-2.743,9.174-4.122Z" transform="translate(2635.385 1758.295)" fill="#7949b8"/>
  </g>
</svg>
