<svg xmlns="http://www.w3.org/2000/svg" xmlns:xlink="http://www.w3.org/1999/xlink" width="54.799" height="56.263" viewBox="0 0 54.799 56.263">
  <defs>
    <clipPath id="clip-path">
      <path id="Trazado_804" data-name="Trazado 804" d="M0,56.263H54.8V0H0Z"/>
    </clipPath>
  </defs>
  <g id="me_robaron_cajero_2" data-name="me robaron cajero 2" transform="translate(-9 -8.565)">
    <g id="Grupo_608" data-name="Grupo 608" transform="translate(9 8.565)">
      <g id="Grupo_607" data-name="Grupo 607">
        <g id="Grupo_606" data-name="Grupo 606" clip-path="url(#clip-path)">
          <g id="Grupo_590" data-name="Grupo 590" clip-path="url(#clip-path)">
            <path id="Trazado_772" data-name="Trazado 772" d="M17.544,54.088H11.823a.347.347,0,0,1-.177-.03.347.347,0,0,1-.177.03H5.585a.549.549,0,0,1-.547-.562c-.015-5.44-.044-13.275-.059-19.9H.574a.681.681,0,0,1-.4-.163C0,33.3,0,33.3.012,30.879c.015-1.316.044-3.045.059-4.775.044-3.459.1-6.933.1-6.933v-.118A5.1,5.1,0,0,1,1.9,16.126a4.388,4.388,0,0,1,1.73-.917l3.873-1.138a.378.378,0,0,0,.222-.251l.133-1.286A7.461,7.461,0,0,1,5.718,9.119a2.367,2.367,0,0,1-1.33-2.306A2.286,2.286,0,0,1,5.836,4.477a.554.554,0,0,1,.68.384.567.567,0,0,1-.37.695,1.342,1.342,0,0,0-.636,1.271c0,.665.325,1.242.724,1.286a.581.581,0,0,1,.488.429,6.194,6.194,0,0,0,2.1,3.356.526.526,0,0,1,.192.5l-.177,1.582a1.377,1.377,0,0,1-1.005,1.2l-3.9,1.109H3.885a3.163,3.163,0,0,0-1.286.695,4.138,4.138,0,0,0-1.36,2.247c-.059,4.686-.148,11.412-.148,13.3H4.964c0-1.937-.015-3.71-.015-5.292l-.015-6.105a.6.6,0,0,1,.148-.4.494.494,0,0,1,.4-.163h0c.4,0,.5.266.532.562h.015v1.4c0,.887,0,2.158.015,3.666v1.02L6.058,33.1v.089c0,1.36,0,2.75.015,4.154.015,6.844.044,13.674.044,15.64h4.79V33.185a.5.5,0,0,1,.266-.473.493.493,0,0,1,.532-.03.569.569,0,0,1,.31.517h0v.207c0,.163,0,.384.015.65.015.562.015,1.36.044,2.306.044,1.907.059,4.435.1,6.992.059,4.08.133,8.175.148,9.623h4.642c0-2-.044-9.032-.059-16.01-.015-4.819-.015-8.663-.015-11.412,0-5.44,0-5.44.222-5.647a.572.572,0,0,1,.783,0c.222.222.222.222.177,6.844-.015,2.38-.044,4.745-.059,5.795h3.829c0-1.907-.089-8.618-.148-13.275a3.8,3.8,0,0,0-1.36-2.247,2.92,2.92,0,0,0-1.286-.695h-.044L15.1,15.18c-.133-.044-.266-.118-.4-.177a1.362,1.362,0,0,1-.606-1.02L13.922,12.4a.691.691,0,0,1,.192-.5,6.369,6.369,0,0,0,2.1-3.356.569.569,0,0,1,.488-.429c.4-.044.724-.621.724-1.286,0-.71-.325-1.183-.636-1.271a.567.567,0,0,1-.37-.695.554.554,0,0,1,.68-.384,2.318,2.318,0,0,1,1.449,2.336,2.367,2.367,0,0,1-1.33,2.306,7.353,7.353,0,0,1-2.143,3.415l.133,1.271a.275.275,0,0,0,.133.222c.015.03.044.03.089.044l3.9,1.138a4.112,4.112,0,0,1,1.73.917,5.126,5.126,0,0,1,1.73,2.927v.118s.044,3.459.089,6.933c.015,1.73.044,3.459.044,4.775.015,2.38.015,2.38-.1,2.557l-.015.03c-.148.177-.148.177-1.183.177H18.017c.015,6.327.044,13.837.089,19.883a.6.6,0,0,1-.148.4.666.666,0,0,1-.414.163Z" transform="translate(0.003 2.13)" fill="#fb6330"/>
          </g>
          <g id="Grupo_591" data-name="Grupo 591" clip-path="url(#clip-path)">
            <path id="Trazado_774" data-name="Trazado 774" d="M4.238,7.707a.552.552,0,0,1-.547-.532A8.309,8.309,0,0,1,5.524,1.69,5.522,5.522,0,0,1,9.751.02a5.522,5.522,0,0,1,4.228,1.67A8.319,8.319,0,0,1,15.8,7.16a.555.555,0,1,1-1.109-.044,7.294,7.294,0,0,0-1.508-4.657,4.466,4.466,0,0,0-3.444-1.33A4.422,4.422,0,0,0,6.322,2.474,7.247,7.247,0,0,0,4.785,7.13a.549.549,0,0,1-.532.577Z" transform="translate(1.764 0.01)" fill="#fb6330"/>
          </g>
          <g id="Grupo_592" data-name="Grupo 592" clip-path="url(#clip-path)">
            <path id="Trazado_776" data-name="Trazado 776" d="M12.2,4.885c-.281,0-.577-.03-.872-.044a8.042,8.042,0,0,1-2.779-.976c-.222-.118-.443-.222-.68-.34a2.82,2.82,0,0,0-2.025-.281,1.634,1.634,0,0,0-.857.739.518.518,0,0,1-.71.237A.549.549,0,0,1,4.03,3.48,2.626,2.626,0,0,1,5.493,2.194a3.645,3.645,0,0,1,2.853.31c.251.118.458.222.71.34a6.26,6.26,0,0,0,2.41.887,5.029,5.029,0,0,0,3-.488.553.553,0,0,1,.739.251.593.593,0,0,1-.237.754,6.225,6.225,0,0,1-2.764.636Z" transform="translate(1.898 0.969)" fill="#fb6330"/>
          </g>
          <g id="Grupo_593" data-name="Grupo 593" clip-path="url(#clip-path)">
            <path id="Trazado_778" data-name="Trazado 778" d="M9.126,15.772a.616.616,0,0,1-.4-.177L5.15,11.825a.558.558,0,0,1,.015-.783.527.527,0,0,1,.769.015l3.592,3.77a.558.558,0,0,1-.015.783.679.679,0,0,1-.384.163Z" transform="translate(2.389 5.205)" fill="#fb6330"/>
          </g>
          <g id="Grupo_594" data-name="Grupo 594" clip-path="url(#clip-path)">
            <path id="Trazado_780" data-name="Trazado 780" d="M7.964,15.771a.454.454,0,0,1-.37-.163.558.558,0,0,1-.015-.783l3.577-3.77a.544.544,0,1,1,.783.754l-3.592,3.77a.539.539,0,0,1-.384.192Z" transform="translate(3.552 5.206)" fill="#fb6330"/>
          </g>
          <g id="Grupo_595" data-name="Grupo 595" clip-path="url(#clip-path)">
            <path id="Trazado_782" data-name="Trazado 782" d="M9.425,18.354a.292.292,0,0,1-.148-.03A.609.609,0,0,1,9,18.162l-4.42-4.775a.587.587,0,0,1,.015-.783.527.527,0,0,1,.769.03L9.4,17.009l4.05-4.39a.527.527,0,0,1,.769-.03.545.545,0,0,1,.015.783l-4.42,4.8a.472.472,0,0,1-.384.177Z" transform="translate(2.12 5.948)" fill="#7949b8"/>
          </g>
          <g id="Grupo_596" data-name="Grupo 596" clip-path="url(#clip-path)">
            <path id="Trazado_784" data-name="Trazado 784" d="M45.725,53.291H18.407a.549.549,0,0,1-.547-.562V6.682a.549.549,0,0,1,.547-.562h27.3a.549.549,0,0,1,.547.562V52.715a.55.55,0,0,1-.532.577ZM18.969,52.183h26.21V7.229H18.969V52.183Z" transform="translate(8.542 2.927)" fill="#7949b8"/>
          </g>
          <g id="Grupo_597" data-name="Grupo 597" clip-path="url(#clip-path)">
            <path id="Trazado_786" data-name="Trazado 786" d="M28.179,16.929A1.811,1.811,0,0,1,26.39,15.11a.342.342,0,0,1,.355-.355.36.36,0,0,1,.355.355,1.079,1.079,0,1,0,1.079-1.094A1.819,1.819,0,1,1,29.967,12.2a.342.342,0,0,1-.355.355.36.36,0,0,1-.355-.355,1.079,1.079,0,1,0-1.079,1.094,1.811,1.811,0,0,1,1.789,1.818,1.783,1.783,0,0,1-1.789,1.818" transform="translate(12.621 4.964)" fill="#fb6330"/>
          </g>
          <g id="Grupo_598" data-name="Grupo 598" clip-path="url(#clip-path)">
            <path id="Trazado_788" data-name="Trazado 788" d="M27.715,17.907a.36.36,0,0,1-.355-.355V10.2a.342.342,0,0,1,.355-.355.36.36,0,0,1,.355.355v7.332a.363.363,0,0,1-.355.37" transform="translate(13.085 4.711)" fill="#fb6330"/>
          </g>
          <g id="Grupo_599" data-name="Grupo 599" clip-path="url(#clip-path)">
            <path id="Trazado_790" data-name="Trazado 790" d="M42.123,42H20.437a.549.549,0,0,1-.547-.562V24.192a.549.549,0,0,1,.547-.562H42.108a.549.549,0,0,1,.547.562V41.443a.52.52,0,0,1-.532.562ZM20.984,40.9H41.561V24.753H20.984V40.9Z" transform="translate(9.513 11.301)" fill="#7949b8"/>
          </g>
          <g id="Grupo_600" data-name="Grupo 600" clip-path="url(#clip-path)">
            <path id="Trazado_792" data-name="Trazado 792" d="M29.142,20.344H22.667a.549.549,0,0,1-.547-.562v-2.35a.549.549,0,0,1,.547-.562h6.475a.549.549,0,0,1,.547.562v2.35a.54.54,0,0,1-.547.562Zm-5.928-1.109h5.381V17.993H23.214v1.242Z" transform="translate(10.579 8.068)" fill="#fb6330"/>
          </g>
          <g id="Grupo_601" data-name="Grupo 601" clip-path="url(#clip-path)">
            <path id="Trazado_794" data-name="Trazado 794" d="M35.529,19.013H30.237a.562.562,0,0,1,0-1.123h5.292a.562.562,0,0,1,0,1.123Z" transform="translate(14.2 8.556)" fill="#7949b8"/>
          </g>
          <g id="Grupo_602" data-name="Grupo 602" clip-path="url(#clip-path)">
            <path id="Trazado_796" data-name="Trazado 796" d="M39.338,20.043H22.057a.549.549,0,0,1-.547-.562V9.282a.549.549,0,0,1,.547-.562H39.338a.549.549,0,0,1,.547.562V19.5a.546.546,0,0,1-.547.547ZM22.6,18.935H38.791V9.858H22.6v9.077Z" transform="translate(10.287 4.17)" fill="#7949b8"/>
          </g>
          <g id="Grupo_603" data-name="Grupo 603" clip-path="url(#clip-path)">
            <path id="Trazado_798" data-name="Trazado 798" d="M41.493,28.152a.549.549,0,0,1-.547-.562V8.683h-19.6v18.36h12.24a.562.562,0,0,1,0,1.123H20.8a.549.549,0,0,1-.547-.562V8.122A.549.549,0,0,1,20.8,7.56h20.7a.549.549,0,0,1,.547.562V27.605a.555.555,0,0,1-.547.547Z" transform="translate(9.685 3.616)" fill="#7949b8"/>
          </g>
          <g id="Grupo_604" data-name="Grupo 604" clip-path="url(#clip-path)">
            <path id="Trazado_800" data-name="Trazado 800" d="M34.717,25.537h-4.05a.549.549,0,0,1-.547-.562V18.752a.549.549,0,0,1,.547-.562h4.05a.549.549,0,0,1,.547.562v6.223a.559.559,0,0,1-.547.562Zm-3.5-1.109H34.17V19.313H31.214v5.115Z" transform="translate(14.405 8.7)" fill="#fb6330"/>
          </g>
          <g id="Grupo_605" data-name="Grupo 605" clip-path="url(#clip-path)">
            <path id="Trazado_802" data-name="Trazado 802" d="M32.437,25.537a.549.549,0,0,1-.547-.562V18.752a.547.547,0,1,1,1.094,0v6.223a.549.549,0,0,1-.547.562Z" transform="translate(15.252 8.7)" fill="#fb6330"/>
          </g>
        </g>
      </g>
    </g>
  </g>
</svg>
