<svg id="me_robaron" data-name="me robaron" xmlns="http://www.w3.org/2000/svg" width="69.795" height="70.182" viewBox="0 0 69.795 70.182">
  <defs>
    <style>
      .cls-1 {
        fill: #8230e9;
      }

      .cls-2 {
        fill: #7949b8;
      }

      .cls-3 {
        fill: #009dd6;
      }

      .cls-4, .cls-5 {
        fill: #ffd42f;
      }

      .cls-4 {
        stroke: rgba(0,0,0,0);
        stroke-miterlimit: 10;
      }

      .cls-5 {
        font-size: 6px;
        font-family: Scotia-Bold, Scotia;
        font-weight: 700;
      }
    </style>
  </defs>
  <g id="Grupo_84" data-name="Grupo 84" transform="translate(13.922)">
    <g id="Grupo_83" data-name="Grupo 83">
      <g id="Grupo_77" data-name="Grupo 77" transform="translate(0.153 25.963)">
        <g id="Grupo_76" data-name="Grupo 76">
          <g id="Grupo_75" data-name="Grupo 75">
            <path id="Trazado_52" data-name="Trazado 52" class="cls-1" d="M30.84,45.158c-7.518,0-19.489-10.645-19.489-23.259a.541.541,0,0,1,1.083,0c0,12.028,11.306,22.177,18.407,22.177S49.247,33.927,49.247,21.9a.541.541,0,0,1,1.083,0C50.33,34.513,38.358,45.158,30.84,45.158Z" transform="translate(-11.351 -21.358)"/>
            <path id="Trazado_53" data-name="Trazado 53" class="cls-1" d="M30.84,45.158c-7.518,0-19.489-10.645-19.489-23.259a.541.541,0,0,1,1.083,0c0,12.028,11.306,22.177,18.407,22.177S49.247,33.927,49.247,21.9a.541.541,0,0,1,1.083,0C50.33,34.513,38.358,45.158,30.84,45.158Z" transform="translate(-11.351 -21.358)"/>
          </g>
        </g>
      </g>
      <g id="Grupo_82" data-name="Grupo 82">
        <g id="Grupo_81" data-name="Grupo 81">
          <g id="Grupo_80" data-name="Grupo 80">
            <g id="Grupo_78" data-name="Grupo 78">
              <path id="Trazado_54" data-name="Trazado 54" class="cls-1" d="M11.92,24.889a.549.549,0,0,1-.117-.013.542.542,0,0,1-.423-.477C10.7,17.151,12.255,11.393,16,7.284,21.482,1.27,30.475.008,37.052.008A47.378,47.378,0,0,1,44.062.5a.54.54,0,0,1,.12,1.033c-3.872,1.592-3.243,5.443-2.92,6.7.109,0,.236-.007.376-.007a8.577,8.577,0,0,1,6.589,2.882c2.359,2.752,3.074,7.236,2.124,13.324a.542.542,0,0,1-1,.2l-4.519-7.381c-1.712.662-8.127,2.978-14.121,2.978-5.977,0-12.312-2.3-14.03-2.973l-4.3,7.367A.543.543,0,0,1,11.92,24.889Zm33.139-8.852a.542.542,0,0,1,.462.259l3.963,6.474c.572-5-.126-8.679-2.08-10.959a7.51,7.51,0,0,0-5.766-2.5,6,6,0,0,0-.7.035.538.538,0,0,1-.585-.358c-.019-.055-1.671-4.971,1.924-7.622a50.325,50.325,0,0,0-5.227-.273c-6.36,0-15.035,1.2-20.252,6.924-3.229,3.543-4.727,8.429-4.462,14.542l3.644-6.25a.542.542,0,0,1,.677-.226c.074.031,7.428,3.066,14.054,3.066s14.064-3.036,14.139-3.067A.538.538,0,0,1,45.058,16.037Z" transform="translate(-11.225 -0.008)"/>
            </g>
            <g id="Grupo_79" data-name="Grupo 79">
              <path id="Trazado_55" data-name="Trazado 55" class="cls-1" d="M11.92,24.889a.549.549,0,0,1-.117-.013.542.542,0,0,1-.423-.477C10.7,17.151,12.255,11.393,16,7.284,21.482,1.27,30.475.008,37.052.008A47.378,47.378,0,0,1,44.062.5a.54.54,0,0,1,.12,1.033c-3.872,1.592-3.243,5.443-2.92,6.7.109,0,.236-.007.376-.007a8.577,8.577,0,0,1,6.589,2.882c2.359,2.752,3.074,7.236,2.124,13.324a.542.542,0,0,1-1,.2l-4.519-7.381c-1.712.662-8.127,2.978-14.121,2.978-5.977,0-12.312-2.3-14.03-2.973l-4.3,7.367A.543.543,0,0,1,11.92,24.889Zm33.139-8.852a.542.542,0,0,1,.462.259l3.963,6.474c.572-5-.126-8.679-2.08-10.959a7.51,7.51,0,0,0-5.766-2.5,6,6,0,0,0-.7.035.538.538,0,0,1-.585-.358c-.019-.055-1.671-4.971,1.924-7.622a50.325,50.325,0,0,0-5.227-.273c-6.36,0-15.035,1.2-20.252,6.924-3.229,3.543-4.727,8.429-4.462,14.542l3.644-6.25a.542.542,0,0,1,.677-.226c.074.031,7.428,3.066,14.054,3.066s14.064-3.036,14.139-3.067A.538.538,0,0,1,45.058,16.037Z" transform="translate(-11.225 -0.008)"/>
            </g>
          </g>
        </g>
      </g>
    </g>
  </g>
  <g id="Grupo_96" data-name="Grupo 96" transform="translate(0 42.19)">
    <g id="Grupo_95" data-name="Grupo 95">
      <g id="Grupo_87" data-name="Grupo 87" transform="translate(0 4.327)">
        <g id="Grupo_86" data-name="Grupo 86">
          <g id="Grupo_85" data-name="Grupo 85">
            <path id="Trazado_56" data-name="Trazado 56" class="cls-1" d="M.317,61.926a.541.541,0,0,1-.541-.541V53.947c0-4.643,2.407-6.422,6.848-8.08C19.963,40.887,20.348,39,20.348,38.8a.541.541,0,0,1,1.083,0c0,.736,0,2.691-14.427,8.08C2.84,48.435.859,49.889.859,53.947v7.437A.541.541,0,0,1,.317,61.926Z" transform="translate(0.224 -38.261)"/>
            <path id="Trazado_57" data-name="Trazado 57" class="cls-1" d="M.317,61.926a.541.541,0,0,1-.541-.541V53.947c0-4.643,2.407-6.422,6.848-8.08C19.963,40.887,20.348,39,20.348,38.8a.541.541,0,0,1,1.083,0c0,.736,0,2.691-14.427,8.08C2.84,48.435.859,49.889.859,53.947v7.437A.541.541,0,0,1,.317,61.926Z" transform="translate(0.224 -38.261)"/>
          </g>
        </g>
      </g>
      <g id="Grupo_89" data-name="Grupo 89" transform="translate(45.475 4.327)">
        <g id="Grupo_88" data-name="Grupo 88">
          <path id="Trazado_58" data-name="Trazado 58" class="cls-1" d="M40.258,41.811a.536.536,0,0,1-.278-.077c-1.941-1.16-2.807-2.064-2.807-2.932a.541.541,0,0,1,1.083,0c0,.107.11.707,2.281,2a.541.541,0,0,1-.278,1Z" transform="translate(-37.172 -38.261)"/>
        </g>
      </g>
      <g id="Grupo_92" data-name="Grupo 92" transform="translate(20.572)">
        <g id="Grupo_91" data-name="Grupo 91">
          <g id="Grupo_90" data-name="Grupo 90">
            <path id="Trazado_59" data-name="Trazado 59" class="cls-1" d="M17.235,40.112a.541.541,0,0,1-.541-.541V35.244a.541.541,0,0,1,1.083,0v4.327A.541.541,0,0,1,17.235,40.112Z" transform="translate(-16.693 -34.703)"/>
            <path id="Trazado_60" data-name="Trazado 60" class="cls-1" d="M17.235,40.112a.541.541,0,0,1-.541-.541V35.244a.541.541,0,0,1,1.083,0v4.327A.541.541,0,0,1,17.235,40.112Z" transform="translate(-16.693 -34.703)"/>
          </g>
        </g>
      </g>
      <g id="Grupo_94" data-name="Grupo 94" transform="translate(45.475)">
        <g id="Grupo_93" data-name="Grupo 93">
          <path id="Trazado_61" data-name="Trazado 61" class="cls-1" d="M37.714,40.112a.541.541,0,0,1-.542-.541V35.244a.541.541,0,0,1,1.083,0v4.327A.541.541,0,0,1,37.714,40.112Z" transform="translate(-37.172 -34.703)"/>
        </g>
      </g>
    </g>
  </g>
  <g id="Grupo_99" data-name="Grupo 99" transform="translate(18.028 48.985)">
    <g id="Grupo_98" data-name="Grupo 98">
      <g id="Grupo_97" data-name="Grupo 97">
        <path id="Trazado_62" data-name="Trazado 62" class="cls-1" d="M30.138,48.641c-12.087,0-15.48-7.555-15.507-7.631a.541.541,0,0,1,1.022-.357c.024.058,3.316,6.906,14.484,6.906,11.007,0,14.462-6.855,14.491-6.924a.545.545,0,0,1,.7-.295.534.534,0,0,1,.309.683C45.612,41.1,42.07,48.641,30.138,48.641Z" transform="translate(-14.601 -40.29)"/>
      </g>
    </g>
  </g>
  <g id="Grupo_102" data-name="Grupo 102" transform="translate(3.955 55.201)">
    <g id="Grupo_101" data-name="Grupo 101">
      <g id="Grupo_100" data-name="Grupo 100">
        <path id="Trazado_63" data-name="Trazado 63" class="cls-1" d="M25.5,46.484H3.57a.541.541,0,1,1,0-1.082H25.5a.541.541,0,1,1,0,1.082Z" transform="translate(-3.029 -45.403)"/>
      </g>
    </g>
  </g>
  <g id="Grupo_105" data-name="Grupo 105" transform="translate(0.222 59.904)">
    <g id="Grupo_104" data-name="Grupo 104">
      <g id="Grupo_103" data-name="Grupo 103">
        <path id="Trazado_64" data-name="Trazado 64" class="cls-1" d="M45.262,50.352H.487a.541.541,0,0,1,0-1.082H45.262a.541.541,0,0,1,0,1.082Z" transform="translate(0.041 -49.27)"/>
      </g>
    </g>
  </g>
  <g id="Grupo_108" data-name="Grupo 108" transform="translate(0.463 64.502)">
    <g id="Grupo_107" data-name="Grupo 107">
      <g id="Grupo_106" data-name="Grupo 106">
        <path id="Trazado_65" data-name="Trazado 65" class="cls-1" d="M47.241,54.133H.686a.541.541,0,0,1,0-1.082H47.241a.541.541,0,0,1,0,1.082Z" transform="translate(-0.157 -53.051)"/>
      </g>
    </g>
  </g>
  <g id="Grupo_111" data-name="Grupo 111" transform="translate(0 69.1)">
    <g id="Grupo_110" data-name="Grupo 110">
      <g id="Grupo_109" data-name="Grupo 109">
        <path id="Trazado_66" data-name="Trazado 66" class="cls-1" d="M50.014,57.914H.3a.541.541,0,0,1,0-1.082H50.014a.541.541,0,0,1,0,1.082Z" transform="translate(0.224 -56.832)"/>
      </g>
    </g>
  </g>
  <g id="Grupo_114" data-name="Grupo 114" transform="translate(40.457 55.201)">
    <g id="Grupo_113" data-name="Grupo 113">
      <g id="Grupo_112" data-name="Grupo 112">
        <path id="Trazado_67" data-name="Trazado 67" class="cls-2" d="M37.765,46.484h-4.19a.541.541,0,0,1,0-1.082h4.19a.541.541,0,0,1,0,1.082Z" transform="translate(-33.046 -45.403)"/>
      </g>
    </g>
  </g>
  <g id="Grupo_621" data-name="Grupo 621" transform="translate(17.168 22.718)">
    <g id="Grupo_116" data-name="Grupo 116" transform="translate(3.404 2.163)">
      <g id="Grupo_115" data-name="Grupo 115">
        <path id="Trazado_68" data-name="Trazado 68" class="cls-3" d="M23.948,25.878H19.4a2.7,2.7,0,1,1,0-5.409h4.548a2.7,2.7,0,1,1,0,5.409ZM19.4,21.551a1.623,1.623,0,1,0,0,3.245h4.548a1.623,1.623,0,1,0,0-3.245Z" transform="translate(-16.693 -20.469)"/>
      </g>
    </g>
    <g id="Grupo_118" data-name="Grupo 118" transform="translate(19.645 2.163)">
      <g id="Grupo_117" data-name="Grupo 117">
        <path id="Trazado_69" data-name="Trazado 69" class="cls-3" d="M37.3,25.878H32.756a2.7,2.7,0,1,1,0-5.409H37.3a2.7,2.7,0,1,1,0,5.409Zm-4.549-4.327a1.623,1.623,0,1,0,0,3.245H37.3a1.623,1.623,0,1,0,0-3.245Z" transform="translate(-30.049 -20.469)"/>
      </g>
    </g>
    <g id="Grupo_121" data-name="Grupo 121" transform="translate(0 8.654)">
      <g id="Grupo_120" data-name="Grupo 120">
        <g id="Grupo_119" data-name="Grupo 119">
          <path id="Trazado_70" data-name="Trazado 70" class="cls-3" d="M28.313,26.888H14.391a.543.543,0,0,1,0-1.082H28.313a.543.543,0,0,1,0,1.082Z" transform="translate(-13.894 -25.807)"/>
        </g>
      </g>
    </g>
    <g id="Grupo_124" data-name="Grupo 124" transform="translate(17.761 8.654)">
      <g id="Grupo_123" data-name="Grupo 123">
        <g id="Grupo_122" data-name="Grupo 122">
          <path id="Trazado_71" data-name="Trazado 71" class="cls-3" d="M43.2,26.888H29.007a.542.542,0,0,1,0-1.082H43.2a.542.542,0,0,1,0,1.082Z" transform="translate(-28.5 -25.807)"/>
        </g>
      </g>
    </g>
    <g id="Grupo_127" data-name="Grupo 127" transform="translate(0)">
      <g id="Grupo_126" data-name="Grupo 126">
        <g id="Grupo_125" data-name="Grupo 125">
          <path id="Trazado_72" data-name="Trazado 72" class="cls-3" d="M46.346,19.771H14.409a.542.542,0,0,1,0-1.082H46.346a.542.542,0,0,1,0,1.082Z" transform="translate(-13.894 -18.69)"/>
        </g>
      </g>
    </g>
    <g id="Grupo_130" data-name="Grupo 130" transform="translate(14.231 6.491)">
      <g id="Grupo_129" data-name="Grupo 129">
        <g id="Grupo_128" data-name="Grupo 128">
          <path id="Trazado_73" data-name="Trazado 73" class="cls-3" d="M26.138,27.273a.541.541,0,0,1-.433-.865l1.624-2.164a.541.541,0,1,1,.866.649l-1.624,2.164A.54.54,0,0,1,26.138,27.273Z" transform="translate(-25.597 -24.027)"/>
        </g>
      </g>
    </g>
    <g id="Grupo_132" data-name="Grupo 132" transform="translate(15.855 6.49)">
      <g id="Grupo_131" data-name="Grupo 131">
        <path id="Trazado_74" data-name="Trazado 74" class="cls-3" d="M29.1,27.273a.541.541,0,0,1-.434-.217l-1.624-2.164a.541.541,0,1,1,.866-.649l1.624,2.164a.541.541,0,0,1-.432.865Z" transform="translate(-26.933 -24.027)"/>
      </g>
    </g>
  </g>
  <g id="Grupo_134" data-name="Grupo 134" transform="translate(47.64 44.354)">
    <g id="Grupo_133" data-name="Grupo 133">
      <path id="Trazado_75" data-name="Trazado 75" class="cls-4" d="M49.78,61.363A10.836,10.836,0,0,1,38.953,50.545c0-5.663,4.547-14.063,10.827-14.063s10.827,8.4,10.827,14.063A10.836,10.836,0,0,1,49.78,61.363Zm0-23.8c-5.157,0-9.745,7.26-9.745,12.982a9.745,9.745,0,0,0,19.489,0C59.525,44.824,54.937,37.564,49.78,37.564Z" transform="translate(-38.953 -36.482)"/>
    </g>
  </g>
  <g id="Grupo_136" data-name="Grupo 136" transform="translate(60.633 38.945)">
    <g id="Grupo_135" data-name="Grupo 135">
      <path id="Trazado_76" data-name="Trazado 76" class="cls-4" d="M50.179,37.443a.541.541,0,0,1-.484-.783l2.166-4.327a.541.541,0,0,1,.968.484l-2.165,4.327A.543.543,0,0,1,50.179,37.443Z" transform="translate(-49.638 -32.034)"/>
    </g>
  </g>
  <g id="Grupo_138" data-name="Grupo 138" transform="translate(53.054 38.944)">
    <g id="Grupo_137" data-name="Grupo 137">
      <path id="Trazado_77" data-name="Trazado 77" class="cls-4" d="M46.112,37.443a.543.543,0,0,1-.484-.3l-2.165-4.327a.541.541,0,0,1,.968-.484L46.6,36.66a.541.541,0,0,1-.484.783Z" transform="translate(-43.405 -32.034)"/>
    </g>
  </g>
  <g id="Grupo_140" data-name="Grupo 140" transform="translate(53.054 38.945)">
    <g id="Grupo_139" data-name="Grupo 139">
      <path id="Trazado_78" data-name="Trazado 78" class="cls-4" d="M53.691,33.116H43.946a.541.541,0,1,1,0-1.082h9.745a.541.541,0,1,1,0,1.082Z" transform="translate(-43.405 -32.034)"/>
    </g>
  </g>
  <text id="_" data-name="$" class="cls-5" transform="translate(55.318 59.464)"><tspan x="0" y="0">$</tspan></text>
</svg>
