<svg id="murio_familiar" data-name="murio familiar" xmlns="http://www.w3.org/2000/svg" xmlns:xlink="http://www.w3.org/1999/xlink" width="62.93" height="63.724" viewBox="0 0 62.93 63.724">
  <defs>
    <clipPath id="clip-path">
      <path id="Trazado_159" data-name="Trazado 159" d="M0,63.724H62.93V0H0Z"/>
    </clipPath>
  </defs>
  <g id="Grupo_110" data-name="Grupo 110">
    <g id="Grupo_109" data-name="Grupo 109" clip-path="url(#clip-path)">
      <g id="Grupo_87" data-name="Grupo 87" clip-path="url(#clip-path)">
        <path id="Trazado_115" data-name="Trazado 115" d="M25.559,53.424a.526.526,0,0,1-.529-.529V29.219a.519.519,0,0,1,.529-.529.526.526,0,0,1,.529.529v23.7a.522.522,0,0,1-.529.505Z" transform="translate(5.082 5.825)" fill="#138468"/>
      </g>
      <g id="Grupo_88" data-name="Grupo 88" clip-path="url(#clip-path)">
        <path id="Trazado_117" data-name="Trazado 117" d="M30.285,8.051a.5.5,0,0,1-.481-.337,4.1,4.1,0,0,0-3.645-2.923,4.012,4.012,0,0,0-3.537,2.647.534.534,0,0,1-.7.277A.544.544,0,0,1,21.647,7,5.065,5.065,0,0,1,26.158,3.72,5.12,5.12,0,0,1,30.79,7.329a.539.539,0,0,1-.313.686,1.329,1.329,0,0,1-.192.036Z" transform="translate(4.386 0.755)" fill="#fb6330"/>
      </g>
      <g id="Grupo_89" data-name="Grupo 89" clip-path="url(#clip-path)">
        <path id="Trazado_119" data-name="Trazado 119" d="M26.228,30.435c-2.334,0-4.295-2.286-4.944-4.439a.521.521,0,0,1,.361-.662.509.509,0,0,1,.65.361c.553,1.817,2.165,3.693,3.934,3.693,1.66,0,3.284-1.817,3.9-3.561a.525.525,0,1,1,.986.361c-.722,2.045-2.683,4.247-4.884,4.247Z" transform="translate(4.316 5.139)" fill="#fb6330"/>
      </g>
      <g id="Grupo_90" data-name="Grupo 90" clip-path="url(#clip-path)">
        <path id="Trazado_121" data-name="Trazado 121" d="M35.107,22.258a.514.514,0,0,1-.505-.421A.535.535,0,0,1,35,21.2a1.2,1.2,0,0,0,.553-.217,2.547,2.547,0,0,1,.361-.217,3.941,3.941,0,0,0,2.165-3.344,4.046,4.046,0,0,0-2.635-3.585,3.68,3.68,0,0,1-.385-.192c-.144-.084-.168-.084-.529-.132a.527.527,0,0,1-.469-.6.514.514,0,0,1,.589-.469,2.167,2.167,0,0,1,.9.241,1.577,1.577,0,0,0,.313.144,5.076,5.076,0,0,1,3.284,4.559,4.974,4.974,0,0,1-2.695,4.283,1.3,1.3,0,0,0-.3.192,2.266,2.266,0,0,1-.89.361.31.31,0,0,1-.156.036Z" transform="translate(6.914 2.524)" fill="#fb6330"/>
      </g>
      <g id="Grupo_91" data-name="Grupo 91" clip-path="url(#clip-path)">
        <path id="Trazado_123" data-name="Trazado 123" d="M23.792,15.042a.58.58,0,0,1-.361-.132l-3.092-2.863a.543.543,0,0,1-.048-.746.517.517,0,0,1,.734-.048l3.092,2.839a.543.543,0,0,1,.048.746.428.428,0,0,1-.373.2Z" transform="translate(4.094 2.258)" fill="#fb6330"/>
      </g>
      <g id="Grupo_92" data-name="Grupo 92" clip-path="url(#clip-path)">
        <path id="Trazado_125" data-name="Trazado 125" d="M27.874,15a.33.33,0,0,1-.144-.024.535.535,0,0,1-.06-1.023c.3-.217,1.516-1.432,2.526-2.454a.5.5,0,0,1,.734,0,.509.509,0,0,1,0,.746C28.62,14.673,28.151,15,27.874,15Z" transform="translate(5.546 2.301)" fill="#fb6330"/>
      </g>
      <g id="Grupo_93" data-name="Grupo 93" clip-path="url(#clip-path)">
        <path id="Trazado_127" data-name="Trazado 127" d="M30.528,21.941a.59.59,0,0,1-.385-.144l-2.105-2.153a.509.509,0,0,1,0-.746.5.5,0,0,1,.734,0L30.9,21.051a.509.509,0,0,1,0,.746.645.645,0,0,1-.373.144Z" transform="translate(5.659 3.804)" fill="#fb6330"/>
      </g>
      <g id="Grupo_94" data-name="Grupo 94" clip-path="url(#clip-path)">
        <path id="Trazado_129" data-name="Trazado 129" d="M21.012,22.032a.59.59,0,0,1-.385-.144.509.509,0,0,1,0-.746l2.358-2.394a.5.5,0,0,1,.734,0,.509.509,0,0,1,0,.746l-2.358,2.394a.409.409,0,0,1-.349.144Z" transform="translate(4.155 3.773)" fill="#fb6330"/>
      </g>
      <g id="Grupo_95" data-name="Grupo 95" clip-path="url(#clip-path)">
        <path id="Trazado_131" data-name="Trazado 131" d="M25.559,24.247a.526.526,0,0,1-.529-.529V20.289a.519.519,0,0,1,.529-.529.526.526,0,0,1,.529.529v3.429a.526.526,0,0,1-.529.529Z" transform="translate(5.082 4.012)" fill="#fb6330"/>
      </g>
      <g id="Grupo_96" data-name="Grupo 96" clip-path="url(#clip-path)">
        <path id="Trazado_133" data-name="Trazado 133" d="M25.479,14.391a.526.526,0,0,1-.529-.529V9.7a.519.519,0,0,1,.529-.529.526.526,0,0,1,.529.529v4.162a.542.542,0,0,1-.529.529Z" transform="translate(5.065 1.862)" fill="#fb6330"/>
      </g>
      <g id="Grupo_97" data-name="Grupo 97" clip-path="url(#clip-path)">
        <path id="Trazado_135" data-name="Trazado 135" d="M25.557,46.9a.54.54,0,0,1-.229-.06.532.532,0,0,1-.229-.71c.144-.325,3.838-7.7,16.181-15.254a.524.524,0,0,1,.553.89C29.791,39.125,26.1,46.5,26.062,46.559a.574.574,0,0,1-.505.337Z" transform="translate(5.084 6.253)" fill="#138468"/>
      </g>
      <g id="Grupo_98" data-name="Grupo 98" clip-path="url(#clip-path)">
        <path id="Trazado_137" data-name="Trazado 137" d="M31.677,42.751a3.5,3.5,0,0,1-2.827-1.179c-.818-1.023-.866-2.562-.132-4.283A12.893,12.893,0,0,1,32.4,32.622a10.112,10.112,0,0,1,5.895-2.009,13.584,13.584,0,0,1,3.2.192.508.508,0,0,1,.421.529,15.584,15.584,0,0,1-.505,3.2,10.144,10.144,0,0,1-3.176,5.414,12.566,12.566,0,0,1-5.281,2.671,5.891,5.891,0,0,1-1.275.132Zm7.375-11.068a9.684,9.684,0,0,0-5.979,1.768A11.36,11.36,0,0,0,29.7,37.7c-.565,1.359-.589,2.49-.024,3.2s1.66.938,3.092.662A11.365,11.365,0,0,0,37.6,39.106c2.574-2.093,3.14-5.991,3.248-7.338-.385-.036-1.011-.084-1.793-.084Z" transform="translate(5.725 6.212)" fill="#138468"/>
      </g>
      <g id="Grupo_99" data-name="Grupo 99" clip-path="url(#clip-path)">
        <path id="Trazado_139" data-name="Trazado 139" d="M27.261,46.741a.511.511,0,0,1-.469-.3c-.048-.06-2.574-5.1-10.779-10.105a.524.524,0,1,1,.553-.89c8.529,5.209,11.08,10.346,11.188,10.563a.535.535,0,0,1-.229.71c-.1,0-.18.024-.265.024Z" transform="translate(3.199 7.178)" fill="#138468"/>
      </g>
      <g id="Grupo_100" data-name="Grupo 100" clip-path="url(#clip-path)">
        <path id="Trazado_141" data-name="Trazado 141" d="M22.668,43.885a7.833,7.833,0,0,1-4.632-1.961c-2.466-2.009-2.587-5.883-2.587-6.051a.521.521,0,0,1,.421-.529c.168-.024,3.922-.722,6.376,1.275,2.574,2.093,3.645,4.908,2.466,6.4a2.468,2.468,0,0,1-2.045.866Zm-6.135-7.543c.108,1.023.529,3.429,2.153,4.776,1.768,1.456,4.355,2.322,5.221,1.263s-.529-3.429-2.322-4.908c-1.612-1.347-4.042-1.239-5.053-1.131Zm-.541-.469Z" transform="translate(3.137 7.148)" fill="#138468"/>
      </g>
      <g id="Grupo_101" data-name="Grupo 101" clip-path="url(#clip-path)">
        <path id="Trazado_143" data-name="Trazado 143" d="M33.372,29.342A6.944,6.944,0,0,1,28.355,27c-2.406-2.647-2.587-6.46-.4-8.493s5.919-1.54,8.325,1.107A7.177,7.177,0,0,1,38.2,24.024,5.107,5.107,0,0,1,36.68,28.1a4.835,4.835,0,0,1-3.308,1.239ZM31.279,18.3a3.756,3.756,0,0,0-2.611.986c-1.744,1.648-1.564,4.776.469,6.978,2,2.214,5.077,2.671,6.845,1.047a3.956,3.956,0,0,0,1.179-3.224,5.979,5.979,0,0,0-1.648-3.753A5.831,5.831,0,0,0,31.279,18.3Z" transform="translate(5.365 3.501)" fill="#fb6330"/>
      </g>
      <g id="Grupo_102" data-name="Grupo 102" clip-path="url(#clip-path)">
        <path id="Trazado_145" data-name="Trazado 145" d="M21.952,17.9a6.27,6.27,0,0,1-1.227-.132,7.035,7.035,0,0,1-4.006-2.623c-2.214-2.815-2.105-6.629.229-8.493a4.86,4.86,0,0,1,4.211-.878A7.035,7.035,0,0,1,25.164,8.4c2.19,2.815,2.081,6.629-.229,8.493A4.686,4.686,0,0,1,21.952,17.9Zm-2-11.2a3.677,3.677,0,0,0-2.334.794c-1.877,1.492-1.9,4.644-.06,6.99a5.975,5.975,0,0,0,3.417,2.238,3.819,3.819,0,0,0,3.332-.686c1.877-1.492,1.9-4.644.06-6.99a5.975,5.975,0,0,0-3.417-2.238,6.019,6.019,0,0,0-1-.108Z" transform="translate(3.071 1.143)" fill="#fb6330"/>
      </g>
      <g id="Grupo_103" data-name="Grupo 103" clip-path="url(#clip-path)">
        <path id="Trazado_147" data-name="Trazado 147" d="M31.063,17.791a4.733,4.733,0,0,1-3-1.023c-2.334-1.853-2.442-5.678-.229-8.493a7.174,7.174,0,0,1,4.006-2.623,4.988,4.988,0,0,1,4.211.878,5.08,5.08,0,0,1,1.829,3.946,7.364,7.364,0,0,1-1.576,4.559,6.732,6.732,0,0,1-5.245,2.755ZM33.084,6.6a5.75,5.75,0,0,0-.986.108,6.092,6.092,0,0,0-3.417,2.238c-1.829,2.37-1.817,5.5.06,6.99s4.908.806,6.737-1.552h0A6.21,6.21,0,0,0,36.85,10.5a4.03,4.03,0,0,0-1.432-3.14A3.924,3.924,0,0,0,33.084,6.6Z" transform="translate(5.329 1.121)" fill="#fb6330"/>
      </g>
      <g id="Grupo_104" data-name="Grupo 104" clip-path="url(#clip-path)">
        <path id="Trazado_149" data-name="Trazado 149" d="M19.4,29.165A4.8,4.8,0,0,1,16.068,27.9a5.013,5.013,0,0,1-1.516-4.078,7.315,7.315,0,0,1,1.913-4.415h0a7,7,0,0,1,4.187-2.3A4.921,4.921,0,0,1,24.778,18.3c2.19,2.045,2,5.847-.4,8.493a6.79,6.79,0,0,1-4.981,2.37Zm2.081-11.044a6.573,6.573,0,0,0-.674.048,6.054,6.054,0,0,0-3.561,1.961h0A6.111,6.111,0,0,0,15.6,23.884a4.085,4.085,0,0,0,1.179,3.224c1.744,1.648,4.824,1.179,6.845-1.047,2-2.214,2.214-5.353.469-6.978a3.841,3.841,0,0,0-2.611-.962Zm-4.632,1.66Z" transform="translate(2.952 3.461)" fill="#fb6330"/>
      </g>
      <g id="Grupo_105" data-name="Grupo 105" clip-path="url(#clip-path)">
        <path id="Trazado_151" data-name="Trazado 151" d="M26.2,21.79a4.416,4.416,0,1,1,4.355-4.415A4.39,4.39,0,0,1,26.2,21.79Zm0-7.76a3.345,3.345,0,1,0,3.308,3.344A3.33,3.33,0,0,0,26.2,14.031Z" transform="translate(4.436 2.631)" fill="#fb6330"/>
      </g>
      <g id="Grupo_106" data-name="Grupo 106" clip-path="url(#clip-path)">
        <path id="Trazado_153" data-name="Trazado 153" d="M31.673,17.069H28.749a.529.529,0,0,1,0-1.059h2.923a.529.529,0,0,1,0,1.059Z" transform="translate(5.729 3.25)" fill="#fb6330"/>
      </g>
      <g id="Grupo_107" data-name="Grupo 107" clip-path="url(#clip-path)">
        <path id="Trazado_155" data-name="Trazado 155" d="M22.733,17.069H19.809a.529.529,0,0,1,0-1.059h2.923a.526.526,0,0,1,.529.529.551.551,0,0,1-.529.529Z" transform="translate(3.914 3.25)" fill="#fb6330"/>
      </g>
      <g id="Grupo_108" data-name="Grupo 108" clip-path="url(#clip-path)">
        <path id="Trazado_157" data-name="Trazado 157" d="M16.227,22.053a.647.647,0,0,1-.253-.06l-.589-.325a5,5,0,0,1-2.695-4.283,5.158,5.158,0,0,1,3.729-4.74.523.523,0,0,1,.674.325.539.539,0,0,1-.313.686,4.13,4.13,0,0,0-3.008,3.729,3.888,3.888,0,0,0,2.165,3.344l.589.325a.56.56,0,0,1,.217.722.646.646,0,0,1-.517.277Z" transform="translate(2.576 2.56)" fill="#fb6330"/>
      </g>
    </g>
  </g>
</svg>
