<svg id="perdi_mi_trabajo_" data-name="perdi mi trabajo " xmlns="http://www.w3.org/2000/svg" xmlns:xlink="http://www.w3.org/1999/xlink" width="52.31" height="52.46" viewBox="0 0 52.31 52.46">
  <defs>
    <clipPath id="clip-path">
      <path id="Trazado_70" data-name="Trazado 70" d="M0,52.46H52.31V0H0Z"/>
    </clipPath>
  </defs>
  <g id="Grupo_57" data-name="Grupo 57">
    <g id="Grupo_56" data-name="Grupo 56" clip-path="url(#clip-path)">
      <g id="Grupo_48" data-name="Grupo 48" clip-path="url(#clip-path)">
        <path id="Trazado_54" data-name="Trazado 54" d="M37.89,12.57a.431.431,0,0,1-.44-.44V7.23a2.661,2.661,0,0,0-2.61-2.97,2.971,2.971,0,0,0-2.61,2.97.44.44,0,0,1-.88,0c0-1.81,1.49-3.84,3.48-3.84,2.05,0,3.48,1.58,3.48,3.84v4.9a.415.415,0,0,1-.42.44Z" fill="#009dd6"/>
      </g>
      <g id="Grupo_49" data-name="Grupo 49" clip-path="url(#clip-path)">
        <path id="Trazado_56" data-name="Trazado 56" d="M44.56,24.03H31.23a.451.451,0,0,1-.42-.3l-3.29-9.97a.447.447,0,0,1,.16-.49.453.453,0,0,1,.51-.02c.04.02,3.38,2.28,6.25,1.51a4.831,4.831,0,0,0,3.06-2.81.066.066,0,0,1,.04-.05.43.43,0,0,1,.46-.21.438.438,0,0,1,.33.3,4.836,4.836,0,0,0,3.05,2.79c2.87.77,6.2-1.49,6.23-1.51a.406.406,0,0,1,.51.02.447.447,0,0,1,.16.49l-3.29,9.97a.489.489,0,0,1-.43.28Zm-13.01-.87H44.24l2.84-8.57a8.781,8.781,0,0,1-5.94,1.04,5.423,5.423,0,0,1-3.24-2.56,5.509,5.509,0,0,1-3.24,2.56,8.691,8.691,0,0,1-5.94-1.04l2.83,8.57Z" fill="#009dd6"/>
      </g>
      <g id="Grupo_50" data-name="Grupo 50" clip-path="url(#clip-path)">
        <path id="Trazado_58" data-name="Trazado 58" d="M37.89,24.03a.431.431,0,0,1-.44-.44V12.13a.44.44,0,1,1,.88,0V23.6a.442.442,0,0,1-.44.43Z" fill="#009dd6"/>
      </g>
      <g id="Grupo_51" data-name="Grupo 51" clip-path="url(#clip-path)">
        <path id="Trazado_60" data-name="Trazado 60" d="M10.15,15.75a1.49,1.49,0,1,1,1.49-1.49,1.494,1.494,0,0,1-1.49,1.49Zm0-2.11a.61.61,0,1,0,.61.61.612.612,0,0,0-.61-.61Z" fill="#fb6330"/>
      </g>
      <g id="Grupo_52" data-name="Grupo 52" clip-path="url(#clip-path)">
        <path id="Trazado_62" data-name="Trazado 62" d="M25.74,24.03H10.75a.443.443,0,0,1-.4-.26L6.51,14.8a2.534,2.534,0,0,1-.02-1.95,2.588,2.588,0,0,1,1.35-1.39l8.79-3.77a2.531,2.531,0,0,1,3.32,1.33l6.16,14.41a.446.446,0,0,1-.04.42.363.363,0,0,1-.33.18Zm-14.69-.87H25.07l-5.9-13.8h0a1.74,1.74,0,0,0-.91-.9,1.671,1.671,0,0,0-1.28.02L8.19,12.27a1.688,1.688,0,0,0-.89.91,1.671,1.671,0,0,0,.02,1.28l3.73,8.7Z" fill="#fb6330"/>
      </g>
      <g id="Grupo_53" data-name="Grupo 53" clip-path="url(#clip-path)">
        <path id="Trazado_64" data-name="Trazado 64" d="M38.15,49.12H14.06a9.667,9.667,0,0,1-9.63-9.66V23.6a.431.431,0,0,1,.44-.44H47.34a.431.431,0,0,1,.44.44V39.47a9.652,9.652,0,0,1-9.63,9.65ZM5.3,24.03V39.46a8.766,8.766,0,0,0,8.75,8.78H38.14a8.766,8.766,0,0,0,8.75-8.78V24.03Z" fill="#7949b8"/>
      </g>
      <g id="Grupo_54" data-name="Grupo 54" clip-path="url(#clip-path)">
        <path id="Trazado_66" data-name="Trazado 66" d="M25.74,24.03H10.75a.44.44,0,0,1,0-.88H25.74a.431.431,0,0,1,.44.44.457.457,0,0,1-.44.44Z" fill="#7949b8"/>
      </g>
      <g id="Grupo_55" data-name="Grupo 55" clip-path="url(#clip-path)">
        <path id="Trazado_68" data-name="Trazado 68" d="M26.14,45.03a1.69,1.69,0,0,1-1.17-.44,1.566,1.566,0,0,1-.53-1.25,1.653,1.653,0,0,1,.49-1.19,1.692,1.692,0,0,1,1.21-.49,1.577,1.577,0,0,1,1.19.49,1.63,1.63,0,0,1,.49,1.19,1.6,1.6,0,0,1-.53,1.25,1.642,1.642,0,0,1-1.15.44Zm0-2.49a.791.791,0,0,0-.6.23.747.747,0,0,0-.23.58.7.7,0,0,0,.23.6.854.854,0,0,0,.6.23.807.807,0,0,0,.58-.23.7.7,0,0,0,.23-.6.776.776,0,0,0-.23-.58.807.807,0,0,0-.58-.23Zm-.11-1.46a1.477,1.477,0,0,1-1.03-.4,1.584,1.584,0,0,1-.44-1.16,3.745,3.745,0,0,1,.25-1.39,3.438,3.438,0,0,1,.67-1.04,12.12,12.12,0,0,1,1-.95c.35-.3.6-.54.75-.68a1.811,1.811,0,0,0,.33-.44.821.821,0,0,0,.11-.42,1.047,1.047,0,0,0-.35-.81,1.674,1.674,0,0,0-2.01-.03,3.094,3.094,0,0,0-.63,1.21,1.514,1.514,0,0,1-1.49,1.25,1.479,1.479,0,0,1-1.1-.46,1.453,1.453,0,0,1-.44-1.02,3.4,3.4,0,0,1,.58-1.84,4.353,4.353,0,0,1,1.65-1.49,5.124,5.124,0,0,1,2.49-.6,5.25,5.25,0,0,1,2.33.49,3.941,3.941,0,0,1,1.61,1.37,3.377,3.377,0,0,1,.58,1.91,3.268,3.268,0,0,1-.33,1.46,4.457,4.457,0,0,1-.77,1.04c-.26.26-.75.7-1.44,1.32a4.116,4.116,0,0,0-.42.42.822.822,0,0,0-.19.26l-.11.25a4.3,4.3,0,0,0-.12.54,1.452,1.452,0,0,1-1.48,1.21Zm.3-8.5a2.234,2.234,0,0,1,1.58.58,1.915,1.915,0,0,1,.63,1.46,1.689,1.689,0,0,1-.21.84,2.588,2.588,0,0,1-.47.63c-.16.16-.42.4-.79.72q-.585.525-.93.9a2.467,2.467,0,0,0-.49.77,2.656,2.656,0,0,0-.18,1.04.716.716,0,0,0,.16.53.581.581,0,0,0,.42.16c.3,0,.49-.09.56-.51v-.02c.07-.28.11-.47.14-.6a1.76,1.76,0,0,1,.16-.4,2.195,2.195,0,0,1,.32-.44,5.6,5.6,0,0,1,.49-.49c.68-.61,1.16-1.04,1.4-1.3a3.213,3.213,0,0,0,.6-.83,2.13,2.13,0,0,0,.23-1.04,2.411,2.411,0,0,0-.44-1.42,2.974,2.974,0,0,0-1.26-1.05,4.572,4.572,0,0,0-1.94-.4,4.362,4.362,0,0,0-2.07.47,3.389,3.389,0,0,0-1.31,1.19,2.539,2.539,0,0,0-.44,1.37.54.54,0,0,0,.19.4.578.578,0,0,0,.47.19c.23,0,.49-.07.65-.63a3.98,3.98,0,0,1,.84-1.54,2.355,2.355,0,0,1,1.69-.58Z" fill="#7949b8"/>
      </g>
    </g>
  </g>
</svg>
