<svg xmlns="http://www.w3.org/2000/svg" width="21.001" height="32.754" viewBox="0 0 21.001 32.754"><g transform="translate(-0.002 0.005)"><g transform="translate(0.002 -0.005)"><path d="M20.576,25.663a17.481,17.481,0,0,0-6.119-4.675,5.8,5.8,0,0,0,3.068-1.314A4.709,4.709,0,0,0,19,15.965c-.013-5.1-1.523-11.019-2.938-13.4A4.887,4.887,0,0,0,13.878.277L13.8.249A4.946,4.946,0,0,0,10.179.4c-.745-.186-3.738-.7-5.2,1.806a9.226,9.226,0,0,0-1,2.364A33.129,33.129,0,0,0,1.635,15.8c.039,3.457,2.9,4.639,4.809,5.038A19.215,19.215,0,0,0,.429,25.994a2.046,2.046,0,0,0,.24,2.763,14.548,14.548,0,0,0,9.582,3.993c4.591,0,8.277-2.7,10.066-4.3A2.05,2.05,0,0,0,20.576,25.663Zm-7.966.46.914.782-2.089,3.159-.38.449c.6-2.446,1.681-6.892,1.8-7.879a8.675,8.675,0,0,0,.078-1.253l.752.41a1.426,1.426,0,0,1,.739,1.4l-.19,1.931-1.458.328a.389.389,0,0,0-.292.467.4.4,0,0,0,.125.207Zm-.8-6.235a.561.561,0,0,1-.024.678,2.345,2.345,0,0,1-1.744.819,1.519,1.519,0,0,1-1.324-.5c-.065-.06-.13-.119-.2-.173a.181.181,0,0,1-.063-.1h0a.208.208,0,0,1,0-.052.113.113,0,0,1,.022-.05V20.5a1.375,1.375,0,0,0,.1-.149l.039-.071c.013-.024.035-.067.052-.1s.028-.065.041-.1a.894.894,0,0,0,.032-.089c.009-.03.026-.078.037-.117l.022-.076c.011-.045.024-.089.032-.134l.013-.063a1.027,1.027,0,0,1,.028-.156v-.03a4.787,4.787,0,0,0,.048-.525v-.408a9.084,9.084,0,0,0-.086-1.056,4.322,4.322,0,0,0,2.523.184l.019.073A4.6,4.6,0,0,0,11.815,19.888ZM8.535,16.55l-.573-.469A15.246,15.246,0,0,1,5.249,9.835,10.366,10.366,0,0,1,4.938,7.6a22.764,22.764,0,0,0,3.429.253,33.9,33.9,0,0,0,3.656-.216c.365-.039.458-.406.544-.808h0c.248.352.48.687.845.648l.864-.106,1.491-.181a9.83,9.83,0,0,1-.43,2.742c-.127.432-.246.847-.363,1.255-.7,2.457-1.419,4.969-2.744,5.386A4.456,4.456,0,0,1,8.535,16.55Zm8.009-9.722a1.492,1.492,0,0,0,.235-.272l.019-.035a34.986,34.986,0,0,1,1.417,9.437A4,4,0,0,1,17,19.084a6.106,6.106,0,0,1-4.14,1.206,4.565,4.565,0,0,1-.694-2.707v-.1c2.094-.951,2.772-3.34,3.552-6.088.119-.4.238-.815.363-1.247a10.4,10.4,0,0,0,.452-3.308ZM4.51,5.977h0c0-.067.019-.138.028-.216l.013-.086q.016-.12.039-.246V5.41c.035-.2.076-.408.134-.631h0a8.417,8.417,0,0,1,.931-2.191A3.182,3.182,0,0,1,8.354,1C8.47,1,8.583.992,8.7.992a5.5,5.5,0,0,1,1.428.188h0l.179.052.153-.1a3.9,3.9,0,0,1,3.1-.147,4.5,4.5,0,0,1,2.022,2.433v.015c.037.089.071.179.106.27l.013.035c.03.08.058.162.086.242l.024.065c.024.069.045.138.067.216l.035.1.05.162.045.145.054.179.035.117.086.3.048.164a.849.849,0,0,1,.028.162v.056a.9.9,0,0,1,0,.108v.06a1,1,0,0,1-.035.138c0,.022-.017.041-.026.06s-.028.058-.043.086-.024.039-.037.058l-.026.03a.563.563,0,0,1-.058.067l-.015.013a.75.75,0,0,1-.082.063.51.51,0,0,1-.216.078c-.527.063-1.039.125-1.543.188l-.743.1a2.325,2.325,0,0,1-.216-.3c-.244-.35-.477-.676-.834-.648s-.465.432-.555.864c-.017.076-.039.186-.063.27A25.381,25.381,0,0,1,5.05,6.832a.524.524,0,0,1-.216-.086L4.8,6.718A.63.63,0,0,1,4.679,6.6l-.026-.035-.028-.045c-.015-.028-.03-.056-.043-.086V6.413a.9.9,0,0,1-.041-.13h0a.8.8,0,0,1-.017-.123V6.13a.82.82,0,0,1-.013-.145Zm-2.1,9.809A30.238,30.238,0,0,1,3.964,6.927h0a1.527,1.527,0,0,0,.192.248A10.954,10.954,0,0,0,4.493,10c.905,3.677,2.1,6.095,3.539,7.21.052.313.093.648.115.968v.164A3.939,3.939,0,0,1,8,19.756v.013a1.3,1.3,0,0,1-.056.125v.022a.851.851,0,0,1-.076.119h0a1.058,1.058,0,0,0-.082.134v.022c0,.019-.019.039-.028.058a8.722,8.722,0,0,1-2.794-.689A3.955,3.955,0,0,1,2.41,15.794Zm4.265,6.049.752-.41A8.675,8.675,0,0,0,7.5,22.677c.125,1,1.262,5.522,1.869,7.9L8.924,30.1l-2.083-3.15.914-.782A.39.39,0,0,0,7.8,25.62a.384.384,0,0,0-.207-.125l-1.458-.328-.19-1.931a1.429,1.429,0,0,1,.735-1.387ZM1.189,28.182a1.272,1.272,0,0,1-.147-1.728,19.83,19.83,0,0,1,4.2-3.988,2.2,2.2,0,0,0-.082.847l.216,2.21a.388.388,0,0,0,.3.341l.977.216-.585.5a.389.389,0,0,0-.071.51l2.292,3.457a.334.334,0,0,0,.041.052l1.251,1.331A13.844,13.844,0,0,1,1.189,28.182ZM10.205,30.7c-.577-2.256-1.8-7.112-1.927-8.108a8.192,8.192,0,0,1-.071-1.128,2.241,2.241,0,0,0,1.694.706h.19a3.1,3.1,0,0,0,2.061-.864,7.763,7.763,0,0,1-.067,1.227c-.125.992-1.309,5.849-1.88,8.167Zm9.586-2.835a15.244,15.244,0,0,1-8.94,4.086l1.188-1.4.028-.037,1.424-2.147.868-1.31a.389.389,0,0,0-.071-.51l-.585-.5.977-.216a.388.388,0,0,0,.3-.341l.216-2.21a2.192,2.192,0,0,0-.186-1.126,16.449,16.449,0,0,1,4.952,3.988A1.274,1.274,0,0,1,19.792,27.867Z" transform="translate(-0.002 0.005)" fill="#009dd6"/></g></g></svg>