<svg id="robaron_mi_bolso" data-name="robaron mi bolso" xmlns="http://www.w3.org/2000/svg" xmlns:xlink="http://www.w3.org/1999/xlink" width="58.997" height="59.74" viewBox="0 0 58.997 59.74">
  <defs>
    <clipPath id="clip-path">
      <path id="Trazado_771" data-name="Trazado 771" d="M0,59.74H59V0H0Z"/>
    </clipPath>
  </defs>
  <g id="Grupo_588" data-name="Grupo 588">
    <g id="Grupo_587" data-name="Grupo 587" clip-path="url(#clip-path)">
      <g id="Grupo_575" data-name="Grupo 575" clip-path="url(#clip-path)">
        <path id="Trazado_747" data-name="Trazado 747" d="M17.546,8.862H12.67a.5.5,0,0,1-.5-.5V3.23a.49.49,0,0,1,.5-.5h4.876a.5.5,0,0,1,.5.5V8.362a.5.5,0,0,1-.5.5Zm-4.376-1h3.89V3.716h-3.89V7.863Z" transform="translate(4.268 0.957)" fill="#7949b8"/>
      </g>
      <g id="Grupo_576" data-name="Grupo 576" clip-path="url(#clip-path)">
        <path id="Trazado_749" data-name="Trazado 749" d="M32.516,8.862H27.64a.5.5,0,0,1-.5-.5V3.23a.49.49,0,0,1,.5-.5h4.876a.5.5,0,0,1,.5.5V8.362a.517.517,0,0,1-.5.5Zm-4.376-1h3.89V3.716h-3.89V7.863Z" transform="translate(9.517 0.957)" fill="#7949b8"/>
      </g>
      <g id="Grupo_577" data-name="Grupo 577" clip-path="url(#clip-path)">
        <path id="Trazado_751" data-name="Trazado 751" d="M40.776,23.285H12.858A5.315,5.315,0,0,1,7.59,17.95l.2-5.024A6.393,6.393,0,0,1,14.154,6.51H40.195a5.3,5.3,0,0,1,5.268,5.322l.594,6.078v.041a5.327,5.327,0,0,1-5.281,5.335ZM14.141,7.537A5.422,5.422,0,0,0,8.765,12.98L8.562,18a4.309,4.309,0,0,0,4.282,4.322H40.762A4.326,4.326,0,0,0,45.044,18l-.594-6.078v-.041A4.3,4.3,0,0,0,40.168,7.55H14.141V7.537Z" transform="translate(2.661 2.283)" fill="#f2609e"/>
      </g>
      <g id="Grupo_578" data-name="Grupo 578" clip-path="url(#clip-path)">
        <path id="Trazado_753" data-name="Trazado 753" d="M39.407,50.355H14.244A7.335,7.335,0,0,1,8.909,48.3a5.107,5.107,0,0,1-1.459-3.782l.945-28.4a.515.515,0,0,1,.5-.486h0l36.117.324a.524.524,0,0,1,.5.486l.716,28.134a5.145,5.145,0,0,1-1.486,3.741,7.426,7.426,0,0,1-5.335,2.039ZM9.369,16.629,8.423,44.561A4.208,4.208,0,0,0,9.612,47.6a6.415,6.415,0,0,0,4.646,1.756H39.434a6.42,6.42,0,0,0,4.619-1.742,4.146,4.146,0,0,0,1.2-3.025L44.54,16.94,9.369,16.629Z" transform="translate(2.612 5.481)" fill="#f2609e"/>
      </g>
      <g id="Grupo_579" data-name="Grupo 579" clip-path="url(#clip-path)">
        <path id="Trazado_755" data-name="Trazado 755" d="M25.046,20.2H20.17a.5.5,0,0,1-.5-.5V16.26a.49.49,0,0,1,.5-.5h4.876a.5.5,0,0,1,.5.5V19.7a.507.507,0,0,1-.5.5Zm-4.376-1h3.89V16.759h-3.89V19.2Z" transform="translate(6.897 5.526)" fill="#009dd6"/>
      </g>
      <g id="Grupo_580" data-name="Grupo 580" clip-path="url(#clip-path)">
        <path id="Trazado_757" data-name="Trazado 757" d="M25.046,22.566H20.17a.5.5,0,0,1-.5-.5V18.69a.49.49,0,0,1,.5-.5h4.876a.5.5,0,0,1,.5.5v3.377a.507.507,0,0,1-.5.5Zm-4.376-1h3.89V19.189h-3.89v2.377Z" transform="translate(6.897 6.378)" fill="#009dd6"/>
      </g>
      <g id="Grupo_581" data-name="Grupo 581" clip-path="url(#clip-path)">
        <path id="Trazado_759" data-name="Trazado 759" d="M26.9,8.567a.5.5,0,0,1-.5-.5,3.458,3.458,0,1,0-6.915,0,.49.49,0,0,1-.5.5.5.5,0,0,1-.5-.5,4.444,4.444,0,1,1,8.887,0,.476.476,0,0,1-.473.5Z" transform="translate(6.484 1.252)" fill="#f2609e"/>
      </g>
      <g id="Grupo_582" data-name="Grupo 582" clip-path="url(#clip-path)">
        <path id="Trazado_761" data-name="Trazado 761" d="M35.678,40.331H14.54a2.649,2.649,0,0,1-2.62-2.661V25.92a.49.49,0,0,1,.5-.5H37.826a.5.5,0,0,1,.5.5V37.67a2.681,2.681,0,0,1-2.647,2.661ZM12.892,26.419V37.67a1.646,1.646,0,0,0,1.634,1.661H35.678a1.646,1.646,0,0,0,1.634-1.661V26.419H12.892Z" transform="translate(4.18 8.914)" fill="#7949b8"/>
      </g>
      <g id="Grupo_583" data-name="Grupo 583" clip-path="url(#clip-path)">
        <path id="Trazado_763" data-name="Trazado 763" d="M33.619,32.109H16.573A4.707,4.707,0,0,1,11.9,27.368V25.91a.49.49,0,0,1,.5-.5H37.806a.5.5,0,0,1,.5.5v1.459a4.71,4.71,0,0,1-4.687,4.741ZM12.9,26.423v.959a3.73,3.73,0,0,0,3.687,3.741H33.632a3.712,3.712,0,0,0,3.687-3.741v-.959Z" transform="translate(4.173 8.91)" fill="#7949b8"/>
      </g>
      <g id="Grupo_584" data-name="Grupo 584" clip-path="url(#clip-path)">
        <path id="Trazado_765" data-name="Trazado 765" d="M13.6,14.279H12.41a.5.5,0,0,1-.5-.5.49.49,0,0,1,.5-.5H13.6a.5.5,0,0,1,.5.5.527.527,0,0,1-.5.5Z" transform="translate(4.176 4.657)" fill="#7949b8"/>
      </g>
      <g id="Grupo_585" data-name="Grupo 585" clip-path="url(#clip-path)">
        <path id="Trazado_767" data-name="Trazado 767" d="M34.157,14.279H32.01a.5.5,0,0,1-.5-.5.49.49,0,0,1,.5-.5h2.148a.5.5,0,0,1,.5.5.517.517,0,0,1-.5.5Zm-4.3,0H27.728a.5.5,0,0,1-.5-.5.49.49,0,0,1,.5-.5h2.148a.5.5,0,0,1,.5.5.51.51,0,0,1-.513.5Zm-4.282,0H23.433a.5.5,0,0,1-.5-.5.49.49,0,0,1,.5-.5H25.58a.5.5,0,1,1,0,1Zm-4.282,0H19.151a.5.5,0,0,1-.5-.5.49.49,0,0,1,.5-.5H21.3a.5.5,0,1,1,0,1Zm-4.282,0H14.87a.5.5,0,0,1-.5-.5.49.49,0,0,1,.5-.5h2.148a.5.5,0,0,1,.5.5.517.517,0,0,1-.5.5Z" transform="translate(5.039 4.657)" fill="#7949b8"/>
      </g>
      <g id="Grupo_586" data-name="Grupo 586" clip-path="url(#clip-path)">
        <path id="Trazado_769" data-name="Trazado 769" d="M31.928,14.279H30.74a.5.5,0,0,1-.5-.5.49.49,0,0,1,.5-.5h1.189a.5.5,0,0,1,.5.5.517.517,0,0,1-.5.5Z" transform="translate(10.604 4.657)" fill="#7949b8"/>
      </g>
    </g>
  </g>
</svg>
