<svg id="robaron_mis_llaves" data-name="robaron mis llaves" xmlns="http://www.w3.org/2000/svg" xmlns:xlink="http://www.w3.org/1999/xlink" width="66.09" height="66.93" viewBox="0 0 66.09 66.93">
  <defs>
    <clipPath id="clip-path">
      <path id="Trazado_821" data-name="Trazado 821" d="M0,66.93H66.09V0H0Z"/>
    </clipPath>
  </defs>
  <g id="Grupo_618" data-name="Grupo 618">
    <g id="Grupo_617" data-name="Grupo 617" clip-path="url(#clip-path)">
      <g id="Grupo_609" data-name="Grupo 609" clip-path="url(#clip-path)">
        <path id="Trazado_805" data-name="Trazado 805" d="M26.409,17.09a5.535,5.535,0,1,1,5.469-5.535,5.5,5.5,0,0,1-5.469,5.535Zm0-9.95a4.415,4.415,0,1,0,4.365,4.415A4.394,4.394,0,0,0,26.409,7.14Z" transform="translate(13.554 3.897)" fill="#ffd42f"/>
      </g>
      <g id="Grupo_610" data-name="Grupo 610" clip-path="url(#clip-path)">
        <path id="Trazado_807" data-name="Trazado 807" d="M13.124,48.61H5.2a.555.555,0,0,1-.56-.56v-11a.61.61,0,0,1,.148-.4L21,20.227A13.36,13.36,0,0,1,33.649,3.21a12.853,12.853,0,0,1,4.316.741c.016,0,.016.016.049.016l2.174,1c.016,0,.016.016.049.016a13.4,13.4,0,0,1,6.589,11.564A13.267,13.267,0,0,1,33.665,29.88a12.747,12.747,0,0,1-3.69-.544l-3.591,3.739v4.431a.555.555,0,0,1-.56.56l-5.173.082-.082,4.431a.542.542,0,0,1-.56.544H15.693l-2.076,5.123a.523.523,0,0,1-.494.362ZM5.76,47.489h7.017l2.076-5.123A.575.575,0,0,1,15.364,42h4.151l.082-4.415a.552.552,0,0,1,.56-.544l5.156-.082v-4.1a.6.6,0,0,1,.148-.379L29.4,28.364a.541.541,0,0,1,.593-.181A12.207,12.207,0,0,0,39.711,5.977l-2.125-.988a11.719,11.719,0,0,0-3.921-.642,12.192,12.192,0,0,0-11.482,15.9.575.575,0,0,1-.181.61L5.777,37.293v10.2Z" transform="translate(3.003 2.078)" fill="#ffd42f"/>
      </g>
      <g id="Grupo_611" data-name="Grupo 611" clip-path="url(#clip-path)">
        <path id="Trazado_809" data-name="Trazado 809" d="M7.228,31.487a.56.56,0,0,1-.4-.955L20.324,16.908a.52.52,0,0,1,.774,0,.567.567,0,0,1,0,.791L7.607,31.322a.477.477,0,0,1-.379.165Z" transform="translate(4.319 10.833)" fill="#009dd6"/>
      </g>
      <g id="Grupo_612" data-name="Grupo 612" clip-path="url(#clip-path)">
        <path id="Trazado_811" data-name="Trazado 811" d="M7.828,30.741a.56.56,0,0,1-.4-.955l8.335-8.418a.52.52,0,0,1,.774,0,.567.567,0,0,1,0,.791L8.207,30.593a.473.473,0,0,1-.379.148Z" transform="translate(4.707 13.719)" fill="#009dd6"/>
      </g>
      <g id="Grupo_613" data-name="Grupo 613" clip-path="url(#clip-path)">
        <path id="Trazado_813" data-name="Trazado 813" d="M31.28,41.311a.532.532,0,0,1-.527-.428L26.535,22.071a.564.564,0,0,1,.428-.675.555.555,0,0,1,.659.428l4.2,18.812a.564.564,0,0,1-.428.675Z" transform="translate(17.168 13.84)" fill="#009dd6"/>
      </g>
      <g id="Grupo_614" data-name="Grupo 614" clip-path="url(#clip-path)">
        <path id="Trazado_815" data-name="Trazado 815" d="M32.049,38.672a.531.531,0,0,1-.527-.445L28.935,26.581a.564.564,0,0,1,.428-.675.54.54,0,0,1,.659.428L32.609,37.98a.564.564,0,0,1-.428.675.409.409,0,0,1-.132.016Z" transform="translate(18.721 16.76)" fill="#009dd6"/>
      </g>
      <g id="Grupo_615" data-name="Grupo 615" clip-path="url(#clip-path)">
        <path id="Trazado_817" data-name="Trazado 817" d="M27.229,17.1a.569.569,0,0,1-.329-.115,8.248,8.248,0,0,1-3.179-6.392,7.792,7.792,0,1,1,15.583,0c0,.115,0,1.367-.016,1.614a.534.534,0,0,1-.593.511.559.559,0,0,1-.511-.609c.016-.165.016-1.252.016-1.516a6.688,6.688,0,1,0-13.376-.033,7.167,7.167,0,0,0,2.751,5.5.589.589,0,0,1,.115.791.681.681,0,0,1-.461.247Z" transform="translate(15.354 1.748)" fill="#009dd6"/>
      </g>
      <g id="Grupo_616" data-name="Grupo 616" clip-path="url(#clip-path)">
        <path id="Trazado_819" data-name="Trazado 819" d="M39.815,59.541a.4.4,0,0,1-.28-.082l-9.175-5.848a.525.525,0,0,1-.247-.362L25.022,30.6a12.377,12.377,0,0,1-3.36-1.516.551.551,0,0,1,.577-.939,11.854,11.854,0,0,0,3.377,1.483.546.546,0,0,1,.4.478L31.1,52.787l8.533,5.436,3.739-6L40.194,47.7a.575.575,0,0,1-.016-.626l2.207-3.558-3.657-2.422a.573.573,0,0,1-.181-.758l2.669-4.481-3.426-2.191a.63.63,0,0,1-.247-.329l-1.351-5.584a.575.575,0,0,1,.181-.61,12.4,12.4,0,0,0,2.454-2.85,12.206,12.206,0,0,0,1.548-9.208A12.005,12.005,0,0,0,35.054,7.47a10.807,10.807,0,0,0-5.074-1.829.559.559,0,0,1-.511-.609.534.534,0,0,1,.593-.511,12.025,12.025,0,0,1,5.551,1.993,13.458,13.458,0,0,1,4.118,18.4,13,13,0,0,1-2.405,2.866l1.219,5.057,3.69,2.356a.557.557,0,0,1,.181.758l-2.669,4.481,3.657,2.438a.537.537,0,0,1,.148.758l-2.306,3.723,3.179,4.53a.575.575,0,0,1,.016.626l-4.217,6.787a.48.48,0,0,1-.346.247Z" transform="translate(13.854 2.925)" fill="#ffd42f"/>
      </g>
    </g>
  </g>
</svg>
