<svg id="se_dañaron_mis_bienes" data-name="se dañaron mis bienes" xmlns="http://www.w3.org/2000/svg" width="44.268" height="36.707" viewBox="0 0 44.268 36.707">
  <path id="Trazado_823" data-name="Trazado 823" d="M41.567,0H2.7A2.7,2.7,0,0,0,0,2.7V28.612a2.7,2.7,0,0,0,2.7,2.7H18.357v2.159h-.541a1.618,1.618,0,0,0,0,3.236h8.637a1.618,1.618,0,1,0,0-3.236h-.541V31.312H41.567a2.7,2.7,0,0,0,2.7-2.7V2.7A2.7,2.7,0,0,0,41.567,0ZM26.994,35.089a.541.541,0,0,1-.541.541H17.815a.541.541,0,0,1,0-1.083h8.637A.544.544,0,0,1,26.994,35.089Zm-2.159-1.624h-5.4V31.306h5.4Zm18.351-4.854a1.619,1.619,0,0,1-1.618,1.618H2.7a1.619,1.619,0,0,1-1.618-1.618V2.7A1.619,1.619,0,0,1,2.7,1.083H41.567A1.619,1.619,0,0,1,43.185,2.7Z" fill="#ec111a"/>
  <path id="Trazado_824" data-name="Trazado 824" d="M43.158,3.75H4.291a.541.541,0,0,0-.541.541V30.2a.541.541,0,0,0,.541.541H43.158A.541.541,0,0,0,43.7,30.2V4.291A.541.541,0,0,0,43.158,3.75Zm-.541,25.911H4.833V4.833H12.4c.012.478.035.916.063,1.319L10.383,8.23a.539.539,0,0,0,.76.766l1.48-1.48a19.56,19.56,0,0,0,.455,2.038,8.648,8.648,0,0,1,.386,2.3,7.71,7.71,0,0,1-.38,1.67,13.518,13.518,0,0,0-.7,3.731.541.541,0,1,0,1.083,0,12.3,12.3,0,0,1,.656-3.426,8.09,8.09,0,0,0,.426-1.969,7.71,7.71,0,0,0,3.777.535.541.541,0,1,0,0-1.083c-2.13,0-3.011,0-3.933-.921-.075-.369-.161-.731-.265-1.111a17.006,17.006,0,0,1-.651-4.445H42.622l-.006,24.829Z" transform="translate(-1.591 -1.591)" fill="#8230e9"/>
  <path id="Trazado_825" data-name="Trazado 825" d="M39.178,37.5H30.541a.541.541,0,1,0,0,1.083H35.4V40.2a2.159,2.159,0,1,0,4.319,0V38.041A.541.541,0,0,0,39.178,37.5ZM37.56,41.277a1.085,1.085,0,0,1-1.083-1.083V38.577h2.159v1.618A1.08,1.08,0,0,1,37.56,41.277Z" transform="translate(-12.726 -15.907)" fill="#fb6330"/>
  <path id="Trazado_826" data-name="Trazado 826" d="M27.168,28.282a.542.542,0,0,0-.766.766l.7.7-.7.7a.539.539,0,0,0,.76.766l.7-.7.7.7a.539.539,0,0,0,.76-.766l-.7-.7.7-.7a.542.542,0,0,0-.766-.766l-.7.7Z" transform="translate(-11.132 -11.93)" fill="#fb6330"/>
  <path id="Trazado_827" data-name="Trazado 827" d="M45.158,31.2a.542.542,0,0,0,.76,0l.7-.7.7.7a.539.539,0,0,0,.76-.766l-.7-.7.7-.7a.542.542,0,0,0-.766-.766l-.7.7-.691-.691a.542.542,0,0,0-.766.766l.7.7-.7.7A.537.537,0,0,0,45.158,31.2Z" transform="translate(-19.086 -11.925)" fill="#fb6330"/>
</svg>
