<svg id="tengo_una_enfermedad" data-name="tengo una enfermedad" xmlns="http://www.w3.org/2000/svg" width="41.65" height="35.94" viewBox="0 0 41.65 35.94">
  <path id="Trazado_723" data-name="Trazado 723" d="M41.03,35.94H38.47a.625.625,0,0,1-.62-.63V9.37a.625.625,0,0,1,.62-.63h2.56a.625.625,0,0,1,.62.63V35.3a.641.641,0,0,1-.62.64Zm-2.39-.81h2.19V9.55H38.64V35.13Z" fill="#f2609e"/>
  <path id="Trazado_724" data-name="Trazado 724" d="M24.43,11.83H16.97a2.343,2.343,0,0,1-2.32-2.36V2.36A2.343,2.343,0,0,1,16.97,0h7.46a2.343,2.343,0,0,1,2.32,2.36V9.47a2.343,2.343,0,0,1-2.32,2.36ZM16.98.81a1.545,1.545,0,0,0-1.52,1.55V9.47a1.545,1.545,0,0,0,1.52,1.55h7.46a1.545,1.545,0,0,0,1.52-1.55V2.36A1.545,1.545,0,0,0,24.44.81H16.98Z" fill="#f2609e"/>
  <path id="Trazado_725" data-name="Trazado 725" d="M20.9,9.27a.4.4,0,0,1-.4-.41V3.24a.4.4,0,1,1,.8,0V8.87a.408.408,0,0,1-.4.4Z" fill="#009dd6"/>
  <path id="Trazado_726" data-name="Trazado 726" d="M23.66,6.46H18.12a.41.41,0,0,1,0-.82h5.54a.4.4,0,0,1,.4.41.4.4,0,0,1-.4.41Z" fill="#009dd6"/>
  <path id="Trazado_727" data-name="Trazado 727" d="M7.47,31.47a.407.407,0,0,1-.29-.11.4.4,0,0,1,0-.57l7.28-7.4a.387.387,0,0,1,.56,0,.4.4,0,0,1,0,.57l-7.28,7.4a.369.369,0,0,1-.27.11Z" fill="#7949b8"/>
  <path id="Trazado_728" data-name="Trazado 728" d="M10.4,31.47a.407.407,0,0,1-.29-.11.4.4,0,0,1,0-.57l7.28-7.4a.387.387,0,0,1,.56,0,.4.4,0,0,1,0,.57l-7.28,7.4a.353.353,0,0,1-.27.11Z" fill="#7949b8"/>
  <path id="Trazado_729" data-name="Trazado 729" d="M38.24,24.55H26.26a.41.41,0,0,1,0-.82H38.24a.4.4,0,0,1,.4.41.4.4,0,0,1-.4.41Z" fill="#f2609e"/>
  <path id="Trazado_730" data-name="Trazado 730" d="M38.24,33H26.26a.41.41,0,0,1,0-.82H38.24a.4.4,0,0,1,.4.41.4.4,0,0,1-.4.41Z" fill="#f2609e"/>
  <path id="Trazado_731" data-name="Trazado 731" d="M38.24,35.94H26.26a.41.41,0,0,1,0-.82H38.24a.41.41,0,0,1,0,.82Z" fill="#f2609e"/>
  <path id="Trazado_732" data-name="Trazado 732" d="M33.46,24.55a1.66,1.66,0,0,1-.75-.18,1.081,1.081,0,0,1-.59-.8h0a.623.623,0,0,1,.11-.44,1.038,1.038,0,0,1,.72-.28,12.544,12.544,0,0,0,3.12-1.48.055.055,0,0,1,.05-.02,1.649,1.649,0,0,1,1.76-.03,1.705,1.705,0,0,1,.48,1.5,1.1,1.1,0,0,1-1.33,1.32h-.34l-2.98.41Zm-.37-.88a.852.852,0,0,0,.51.07l2.98-.41a3.54,3.54,0,0,1,.46-.02c.18,0,.42.02.46-.05.02-.02.08-.1.05-.44v-.08c.03-.2.02-.63-.18-.78-.16-.11-.5-.08-.93.13a13.157,13.157,0,0,1-3.35,1.58Z" fill="#f2609e"/>
  <path id="Trazado_733" data-name="Trazado 733" d="M32.85,23.27a3.077,3.077,0,0,1-.94-.15,3.148,3.148,0,0,1-1.87-1.58,3.192,3.192,0,0,1-.22-2.46h0a3.2,3.2,0,0,1,1.55-1.9,3.058,3.058,0,0,1,2.42-.23,3.148,3.148,0,0,1,1.87,1.58,3.244,3.244,0,0,1-2.81,4.74Zm0-5.65a2.4,2.4,0,0,0-1.1.28,2.371,2.371,0,0,0-1.17,1.42h0a2.447,2.447,0,0,0,.16,1.84,2.356,2.356,0,0,0,4.37-.4,2.427,2.427,0,0,0-1.57-3.03,2.554,2.554,0,0,0-.69-.11ZM30.19,19.2Z" fill="#009dd6"/>
  <path id="Trazado_734" data-name="Trazado 734" d="M28.83,23.69H26.25a.4.4,0,0,1-.4-.41V20.16a.4.4,0,0,1,.4-.41h2.58a1.97,1.97,0,0,1,0,3.94Zm-2.17-.81h2.18a1.16,1.16,0,0,0,0-2.32H26.66v2.32Z" fill="#009dd6"/>
  <path id="Trazado_735" data-name="Trazado 735" d="M26.26,35.94H.4a.4.4,0,0,1-.4-.41V21.02A2.407,2.407,0,0,1,2.38,18.6H26.25a.4.4,0,0,1,.4.41V35.54a.393.393,0,0,1-.39.4ZM.8,35.13H25.86V19.41H2.38A1.59,1.59,0,0,0,.8,21.02V35.13Z" fill="#f2609e"/>
  <path id="Trazado_736" data-name="Trazado 736" d="M22.82,35.55a.4.4,0,0,1-.4-.41V19a.4.4,0,1,1,.8,0V35.14a.417.417,0,0,1-.4.41Z" fill="#f2609e"/>
</svg>
